<svg xmlns="http://www.w3.org/2000/svg" width="95.54" height="27.32" viewBox="0 0 95.54 27.32">
  <g id="Group_1817" data-name="Group 1817" transform="translate(0)">
    <path id="Path_1200" data-name="Path 1200" d="M389.083,252.743c0,2.9-.984,4.2-3.19,4.2s-3.19-1.294-3.19-4.2v-7.987h-2.939v8.292c0,4.286,2.177,6.647,6.129,6.647s6.129-2.36,6.129-6.647v-8.292h-2.939Z" transform="translate(-339.731 -239.719)" fill="#1d3054"/>
    <path id="Path_1201" data-name="Path 1201" d="M487.245,249.459c0,3.508-2.276,5.078-4.53,5.078-2.894,0-4.408-2.555-4.408-5.078,0-3.294,2.218-5.018,4.408-5.018,2.667,0,4.53,2.063,4.53,5.018m-4.013-7.652a5.917,5.917,0,0,0-4.926,2.669v-2.242h-2.939V263.1h2.939v-8.515a5.919,5.919,0,0,0,4.8,2.583,6.4,6.4,0,0,0,5.132-2.358,8.587,8.587,0,0,0,1.789-5.446,8.14,8.14,0,0,0-1.831-5.257,6.4,6.4,0,0,0-4.968-2.3" transform="translate(-421.511 -237.196)" fill="#1d3054"/>
    <path id="Path_1202" data-name="Path 1202" d="M224.18,242.565l-.059-.042a4.385,4.385,0,0,0-2.307-.716,4.14,4.14,0,0,0-3.89,2.569v-2.143h-2.939v14.451h2.939v-7.1c0-2.307.366-4.956,3.22-4.956a2.5,2.5,0,0,1,1.159.25Z" transform="translate(-198.778 -237.196)" fill="#1d3054"/>
    <path id="Path_1203" data-name="Path 1203" d="M114.622,242.233v2.3a5.848,5.848,0,0,0-4.926-2.724,6.4,6.4,0,0,0-4.968,2.3,8.14,8.14,0,0,0-1.831,5.257,8.588,8.588,0,0,0,1.789,5.446,6.4,6.4,0,0,0,5.132,2.358,5.918,5.918,0,0,0,4.8-2.583v2.154c0,2.541-.473,5.139-3.982,5.139-2.569,0-4.165-1.5-4.165-3.921v-.1h-2.94l0,.1c.059,3.92,2.865,6.554,6.982,6.554,6.242,0,7.043-4.561,7.043-8.534V242.233Zm-4.543,12.3c-2.894,0-4.408-2.555-4.408-5.078,0-3.294,2.217-5.018,4.408-5.018,2.667,0,4.53,2.063,4.53,5.018C114.609,252.967,112.334,254.537,110.079,254.537Z" transform="translate(-102.897 -237.196)" fill="#1d3054"/>
    <path id="Path_1204" data-name="Path 1204" d="M605.239,220.88a10.324,10.324,0,0,1-3.758.91,2.073,2.073,0,0,1-1.718-.607,2.468,2.468,0,0,1-.142-2.125l.811-3.682c.414-1.784.246-3.162-.5-4.1a3.759,3.759,0,0,0-3.119-1.238,6.651,6.651,0,0,0-4.26,1.631,3.283,3.283,0,0,0-3.212-1.631,6.234,6.234,0,0,0-3.781,1.372,3.741,3.741,0,0,0-3.294-1.492,6.484,6.484,0,0,0-2.223.406l-.206.075-.577,2.765.693-.289c1-.414,1.79-.389,2.156.073a1.827,1.827,0,0,1,.173,1.532l-1.924,7.942h3.233l1.282-5.533c.726-2.737,1.873-4.012,3.609-4.012a1.306,1.306,0,0,1,1.058.437,2.5,2.5,0,0,1,.088,1.986l-1.651,7.121h3.229l1.517-6.547a3.62,3.62,0,0,1,3.326-3,1.321,1.321,0,0,1,1.082.442,2.5,2.5,0,0,1,.087,1.982l-.929,4.045a4.515,4.515,0,0,0,.655,3.944,4.813,4.813,0,0,0,3.862,1.54,10.062,10.062,0,0,0,4.326-1.057l.176-.086.612-3.1Z" transform="translate(-510.383 -209.92)" fill="#0080c9"/>
    <path id="Path_1205" data-name="Path 1205" d="M283.668,245.874a6.878,6.878,0,0,0-1.444-2.435,6.706,6.706,0,0,0-2.321-1.6,8.761,8.761,0,0,0-6.275,0,6.693,6.693,0,0,0-2.32,1.6,6.861,6.861,0,0,0-1.444,2.435,10.007,10.007,0,0,0,0,6.234,6.859,6.859,0,0,0,1.444,2.435,6.68,6.68,0,0,0,2.321,1.6,8.759,8.759,0,0,0,6.276,0,6.692,6.692,0,0,0,2.321-1.6,6.876,6.876,0,0,0,1.444-2.435,10.008,10.008,0,0,0,0-6.234Zm-4.926,8.047a4.3,4.3,0,0,1-3.951,0,4.17,4.17,0,0,1-1.374-1.255,5.442,5.442,0,0,1-.786-1.734,7.716,7.716,0,0,1,0-3.9,5.263,5.263,0,0,1,.786-1.735,4.238,4.238,0,0,1,1.373-1.239,4.3,4.3,0,0,1,3.951,0,4.241,4.241,0,0,1,1.373,1.24,5.282,5.282,0,0,1,.787,1.735,7.713,7.713,0,0,1,0,3.9,5.465,5.465,0,0,1-.786,1.734A4.167,4.167,0,0,1,278.742,253.921Z" transform="translate(-245.297 -236.728)" fill="#1d3054"/>
  </g>
</svg>
