<svg xmlns="http://www.w3.org/2000/svg" width="50.532" height="29.653" viewBox="0 0 50.532 29.653"><defs><style>.a{fill:#ee2d23;}</style></defs><path class="a" d="M50.518,19.68c0-5.2-4.032-9.924-11.832-9.924H30.938V.551H24.332L21.676,5.437,18.9.551H12.291V11.4A7.3,7.3,0,0,0,7.23,9.445a7.313,7.313,0,0,0-5.153,2.041A6.878,6.878,0,0,0,0,16.435v.034A6.83,6.83,0,0,0,2.061,21.4a7.334,7.334,0,0,0,5.156,2.024,7.264,7.264,0,0,0,5.132-2.041A6.854,6.854,0,0,0,14.409,16.9h3.662V10.193l3.6,5.145,3.481-5.145V16.9h5.681V30.2h7.615c7.854,0,12.08-4.356,12.08-10.229l-.015-.295Zm-41-3.212A2.229,2.229,0,0,1,7.23,18.832a2.267,2.267,0,0,1-2.337-2.4V16.4h0A2.279,2.279,0,0,1,7.216,14a2.263,2.263,0,0,1,2.3,2.431v.034Zm33.9,3.437c0,2.51-1.958,3.6-4.278,3.6H37.8V16.251h1.318c2.34,0,4.3,1.1,4.3,3.606v.048Z" transform="translate(0 -0.551)"/></svg>