<svg xmlns="http://www.w3.org/2000/svg" width="68.954" height="21.482" viewBox="0 0 68.954 21.482"><defs><style>.a{fill:#21314d;}.b{opacity:0.35;}.c{fill:#374ea0;}.d{fill:#374fa0;}.e{fill:#374fa1;}.f{fill:#3750a1;}.g{fill:#3751a2;}.h{fill:#3752a2;}.i{fill:#3653a3;}.j{fill:#3654a4;}.k{fill:#3655a4;}.l{fill:#3656a5;}.m{fill:#3657a5;}.n{fill:#3557a6;}.o{fill:#3558a6;}.p{fill:#3559a7;}.q{fill:#355aa7;}.r{fill:#355ba8;}.s{fill:#345ca9;}.t{fill:#345da9;}.u{fill:#345eaa;}.v{fill:#345fab;}.w{fill:#3460ab;}.x{fill:#3361ac;}.y{fill:#3362ad;}.z{fill:#3363ad;}.aa{fill:#3364ae;}.ab{fill:#3264ae;}.ac{fill:#3265af;}.ad{fill:#3266af;}.ae{fill:#3267b0;}.af{fill:#3268b1;}.ag{fill:#3269b1;}.ah{fill:#316ab2;}.ai{fill:#316bb3;}.aj{fill:#316cb4;}.ak{fill:#316db4;}.al{fill:#306db5;}.am{fill:#306eb5;}.an{fill:#306fb6;}.ao{fill:#3070b6;}.ap{fill:#3070b7;}.aq{fill:#2f71b7;}.ar{fill:#2f72b8;}.as{fill:#2f73b8;}.at{fill:#2f73b9;}.au{fill:#2e74b9;}.av{fill:#2e75ba;}.aw{fill:#2e76bb;}.ax{fill:#2d77bc;}.ay{fill:#2d78bc;}.az{fill:#2d79bd;}.ba{fill:#2c79bd;}.bb{fill:#2c7abe;}.bc{fill:#2c7bbf;}.bd{fill:#2c7cbf;}.be{fill:#2b7cc0;}.bf{fill:#2b7dc0;}.bg{fill:#2b7ec1;}.bh{fill:#2a7fc2;}.bi{fill:#2a80c2;}.bj{fill:#2a80c3;}.bk{fill:#2981c3;}.bl{fill:#2982c4;}.bm{fill:#2883c5;}.bn{fill:#2884c5;}.bo{fill:#2784c6;}.bp{fill:#2785c6;}.bq{fill:#2786c7;}.br{fill:#2687c8;}.bs{fill:#2588c8;}.bt{fill:#2589c9;}.bu{fill:#2489c9;}.bv{fill:#248aca;}.bw{fill:#238bcb;}.bx{fill:#238ccb;}.by{fill:#228dcc;}.bz{fill:#228ecd;}.ca{fill:#218ecd;}.cb{fill:#218fce;}.cc{fill:#2090cf;}.cd{fill:#1f91cf;}.ce{fill:#1f92d0;}.cf{fill:#1e93d1;}.cg{fill:#1d93d1;}.ch{fill:#1d94d2;}.ci{fill:#1c95d3;}.cj{fill:#1b96d3;}.ck{fill:#1a97d4;}.cl{fill:#1998d4;}.cm{fill:#1898d5;}.cn{fill:#1799d6;}.co{fill:#169ad6;}.cp{fill:#159bd7;}.cq{fill:#149cd8;}.cr{fill:#139dd8;}.cs{fill:#139ed9;}.ct{fill:#129eda;}.cu{fill:#109fda;}.cv{fill:#0fa0db;}.cw{fill:#0ea1dc;}.cx{fill:#0da2dc;}.cy{fill:#0ba3dd;}.cz{fill:#0aa4de;}.da{fill:#08a4de;}.db{opacity:0.36;}.dc{fill:#c92c2f;}.dd{fill:#c82d30;}.de{fill:#c82d31;}.df{fill:#c72e31;}.dg{fill:#c62e32;}.dh{fill:#c52e33;}.di{fill:#c52f34;}.dj{fill:#c42f34;}.dk{fill:#c33035;}.dl{fill:#c23036;}.dm{fill:#c23037;}.dn{fill:#c13138;}.do{fill:#c03138;}.dp{fill:#bf3139;}.dq{fill:#bf323a;}.dr{fill:#be323b;}.ds{fill:#bd333c;}.dt{fill:#bc333d;}.du{fill:#bb333d;}.dv{fill:#bb343e;}.dw{fill:#ba343f;}.dx{fill:#b93440;}.dy{fill:#b83541;}.dz{fill:#b73541;}.ea{fill:#b63542;}.eb{fill:#b63643;}.ec{fill:#b53644;}.ed{fill:#b43645;}.ee{fill:#b33745;}.ef{fill:#b23746;}.eg{fill:#b23747;}.eh{fill:#b13848;}.ei{fill:#b03849;}.ej{fill:#af3849;}.ek{fill:#ae384a;}.el{fill:#ae394b;}.em{fill:#ad394c;}.en{fill:#ac394d;}.eo{fill:#ab3a4d;}.ep{fill:#aa3a4e;}.eq{fill:#a93a4f;}.er{fill:#a93a50;}.es{fill:#a83b50;}.et{fill:#a73b51;}.eu{fill:#a63b52;}.ev{fill:#a53c52;}.ew{fill:#a43c53;}.ex{fill:#a43c54;}.ey{fill:#a33c55;}.ez{fill:#a23d55;}.fa{fill:#a13d56;}.fb{fill:#a03d57;}.fc{fill:#9f3e58;}.fd{fill:#9e3e59;}.fe{fill:#9d3e59;}.ff{fill:#9c3e5a;}.fg{fill:#9b3e5b;}.fh{fill:#9b3f5b;}.fi{fill:#9a3f5c;}.fj{fill:#993f5d;}.fk{fill:#983f5d;}.fl{fill:#973f5e;}.fm{fill:#96405f;}.fn{fill:#954060;}.fo{fill:#944061;}.fp{fill:#934162;}.fq{fill:#924162;}.fr{fill:#914163;}.fs{fill:#914164;}.ft{fill:#904164;}.fu{fill:#8f4265;}.fv{fill:#8e4266;}.fw{fill:#8d4266;}.fx{fill:#8c4267;}.fy{fill:#8c4268;}.fz{fill:#8b4268;}.ga{fill:#8a4369;}.gb{fill:#89436a;}.gc{fill:#88436a;}.gd{fill:#87436b;}.ge{fill:#87436c;}.gf{fill:#86446d;}.gg{fill:#85446d;}.gh{fill:#84446e;}.gi{fill:#83446f;}.gj{fill:#82446f;}.gk{fill:#814470;}.gl{fill:#814571;}.gm{fill:#804571;}.gn{fill:#7f4572;}.go{fill:#7e4573;}.gp{fill:#7d4574;}.gq{fill:#7c4574;}.gr{fill:#7b4675;}.gs{fill:#7a4676;}.gt{fill:#7a4677;}.gu{fill:#794677;}.gv{fill:#784678;}.gw{fill:#774679;}.gx{fill:#764779;}.gy{fill:#75477a;}.gz{fill:#74477b;}.ha{fill:#73477c;}.hb{fill:#72477c;}.hc{fill:#71477d;}.hd{fill:#70477e;}.he{fill:#6f487e;}.hf{fill:#6e487f;}.hg{fill:#6d4880;}.hh{fill:#6c4881;}.hi{fill:#6b4881;}.hj{fill:#6a4882;}.hk{fill:#694883;}.hl{fill:#684983;}.hm{fill:#674984;}.hn{fill:#664985;}.ho{fill:#654986;}.hp{fill:#644986;}.hq{fill:#634987;}.hr{fill:#624988;}.hs{fill:#614a88;}.ht{fill:#604a89;}.hu{fill:#5f4a8a;}.hv{fill:#5d4a8b;}.hw{fill:#5c4a8b;}.hx{fill:#5b4a8c;}.hy{fill:#5a4a8d;}.hz{fill:#594b8d;}.ia{fill:#584b8e;}.ib{fill:#564b8f;}.ic{fill:#554b90;}.id{fill:#544b90;}.ie{fill:#534b91;}.if{fill:#514b92;}.ig{fill:#504c93;}.ih{fill:#4f4c93;}.ii{fill:#4d4c94;}.ij{fill:#4c4c95;}.ik{fill:#4b4c96;}.il{fill:#494c96;}.im{fill:#484c97;}.in{fill:#464c98;}.io{fill:#454d99;}.ip{fill:#434d99;}.iq{fill:#424d9a;}.ir{fill:#404d9b;}.is{fill:#3e4d9c;}.it{fill:#3d4d9d;}.iu{fill:#3b4e9e;}.iv{fill:#394e9f;}</style></defs><g transform="translate(0 0)"><path class="a" d="M180.137,422.074H177.25V413.86h2.028a.861.861,0,0,1,.859.859Z" transform="translate(-170.115 -405.089)"/><path class="a" d="M209.455,414.322a4.275,4.275,0,0,1,.973,2.95v4.306h-2.887v-4.1c0-1.127-.557-1.769-1.514-1.769a1.57,1.57,0,0,0-1.548,1.753v4.115H201.59v-8.214h2.044a.843.843,0,0,1,.843.845h0a2.67,2.67,0,0,1,2.33-.989A3.406,3.406,0,0,1,209.455,414.322Z" transform="translate(-188.97 -404.594)"/><path class="a" d="M407.988,418.207h-6.22a1.665,1.665,0,0,0,1.787,1.275,2.1,2.1,0,0,0,1.7-.7.421.421,0,0,1,.507-.095l2.087,1.021a5.614,5.614,0,0,1-7.743.782,4.237,4.237,0,0,1,.032-6.125,4.879,4.879,0,0,1,3.414-1.212,4.613,4.613,0,0,1,3.22,1.1A3.813,3.813,0,0,1,408,417.233Zm-6.235-1.71h3.184a1.505,1.505,0,0,0-1.577-1.325A1.528,1.528,0,0,0,401.753,416.5Z" transform="translate(-341.747 -404.539)"/><path class="a" d="M304.3,413.36v.845a3.191,3.191,0,0,0-2.5-.987,4.259,4.259,0,1,0-.007,8.511,3.188,3.188,0,0,0,2.5-.989v.829h2.9v-7.351a.859.859,0,0,0-.856-.859Zm-1.929,6.021a1.906,1.906,0,1,1,1.906-1.906A1.906,1.906,0,0,1,302.369,419.381Z" transform="translate(-263.161 -404.589)"/><path class="a" d="M301.939,36.21v1.221h-.228v-.96l-.243.96h-.237l-.243-.96v.96h-.228V36.21h.367l.223.834.219-.834Z" transform="translate(-232.984 -28.05)"/><path class="a" d="M296.731,36.21v.207h-.363v1.014h-.246V36.417h-.363V36.21Z" transform="translate(-229.111 -28.05)"/><path class="a" d="M358.747,422.344h0v-7.482a.859.859,0,0,0-.856-.859h-2.028v.845a3.188,3.188,0,0,0-2.5-.989,4.259,4.259,0,1,0,0,8.518,3.188,3.188,0,0,0,2.5-.989v1.084h0l-.061.647a1.65,1.65,0,0,1-1.771,1.266,2.033,2.033,0,0,1-1.868-.949l-2.391,1.172a5.584,5.584,0,0,0,7.693.775,3.937,3.937,0,0,0,1.28-2.911h0Zm-4.793-2.463a1.906,1.906,0,1,1,1.906-1.906A1.906,1.906,0,0,1,353.954,419.881Z" transform="translate(-303.239 -405.089)"/><path class="a" d="M258.169,422.344h0v-7.482a.859.859,0,0,0-.859-.859h-2.028v.845a3.187,3.187,0,0,0-2.5-.989,4.259,4.259,0,1,0,0,8.518,3.188,3.188,0,0,0,2.5-.989v1.084h0l-.061.647a1.65,1.65,0,0,1-1.771,1.266,2.033,2.033,0,0,1-1.868-.949l-2.391,1.172a5.584,5.584,0,0,0,7.693.775,3.937,3.937,0,0,0,1.28-2.911h0Zm-4.793-2.463a1.906,1.906,0,1,1,1.906-1.906A1.906,1.906,0,0,1,253.376,419.881Z" transform="translate(-225.325 -405.089)"/><g class="b" transform="translate(0 0)"><rect class="c" width="2.842" height="2.842" rx="1.421" transform="translate(0 3.047)"/><path class="d" d="M147.493,388.332a1.066,1.066,0,0,1,1.066,1.061v.712a1.064,1.064,0,0,1-1.059,1.066h-.714a1.066,1.066,0,0,1-1.066-1.061V389.4a1.068,1.068,0,0,1,1.061-1.066Z" transform="translate(-145.691 -385.313)"/><path class="e" d="M147.6,388.21a1.066,1.066,0,0,1,1.066,1.059v.714a1.066,1.066,0,0,1-1.059,1.066H146.9a1.066,1.066,0,0,1-1.066-1.057v-.714a1.066,1.066,0,0,1,1.057-1.066Z" transform="translate(-145.776 -385.22)"/><path class="f" d="M147.76,388.09a1.068,1.068,0,0,1,1.068,1.055v.714a1.068,1.068,0,0,1-1.055,1.068h-.714A1.068,1.068,0,0,1,146,389.873v-.714a1.068,1.068,0,0,1,1.055-1.068Z" transform="translate(-145.908 -385.127)"/><path class="g" d="M147.847,387.992a1.068,1.068,0,0,1,1.07,1.052v.712a1.07,1.07,0,0,1-1.055,1.07h-.712a1.07,1.07,0,0,1-1.07-1.053v-.714a1.07,1.07,0,0,1,1.055-1.07Z" transform="translate(-145.97 -385.049)"/><path class="h" d="M147.942,387.84a1.073,1.073,0,0,1,1.073,1.05v.712a1.073,1.073,0,0,1-1.05,1.073h-.712a1.073,1.073,0,0,1-1.073-1.05s0-.7,0-.712a1.073,1.073,0,0,1,1.05-1.073Z" transform="translate(-146.047 -384.933)"/><path class="i" d="M148.09,387.72a1.07,1.07,0,0,1,1.073,1.046v.712a1.073,1.073,0,0,1-1.046,1.075H147.4a1.073,1.073,0,0,1-1.075-1.048v-.712a1.073,1.073,0,0,1,1.048-1.073S148.076,387.72,148.09,387.72Z" transform="translate(-146.163 -384.84)"/><path class="i" d="M148.208,387.59a1.077,1.077,0,0,1,1.075,1.046v.71a1.077,1.077,0,0,1-1.046,1.077h-.71a1.075,1.075,0,0,1-1.077-1.043c0-.014,0-.7,0-.712a1.075,1.075,0,0,1,1.043-1.075C147.509,387.594,148.192,387.59,148.208,387.59Z" transform="translate(-146.256 -384.739)"/><path class="j" d="M148.372,387.47a1.077,1.077,0,0,1,1.077,1.041c0,.016.011.694.011.71a1.077,1.077,0,0,1-1.041,1.079l-.71.011a1.077,1.077,0,0,1-1.079-1.041v-.71a1.077,1.077,0,0,1,1.041-1.079C147.676,387.475,148.354,387.47,148.372,387.47Z" transform="translate(-146.396 -384.646)"/><path class="k" d="M148.451,387.35a1.079,1.079,0,0,1,1.079,1.039c0,.016.014.69.014.71a1.082,1.082,0,0,1-1.041,1.079l-.708.013a1.082,1.082,0,0,1-1.082-1.039c0-.018-.014-.692-.014-.71a1.082,1.082,0,0,1,1.041-1.082C147.757,387.354,148.431,387.35,148.451,387.35Z" transform="translate(-146.45 -384.553)"/><path class="l" d="M148.574,387.22a1.079,1.079,0,0,1,1.082,1.037c0,.018.016.687.016.71a1.082,1.082,0,0,1-1.037,1.082l-.71.014a1.082,1.082,0,0,1-1.082-1.037c0-.018-.014-.687-.014-.708a1.082,1.082,0,0,1,1.037-1.082C147.885,387.227,148.554,387.22,148.574,387.22Z" transform="translate(-146.551 -384.453)"/><path class="m" d="M148.692,387.1a1.082,1.082,0,0,1,1.084,1.032c0,.02.016.676.016.71a1.084,1.084,0,0,1-1.032,1.084l-.71.016a1.084,1.084,0,0,1-1.084-1.034c0-.02-.016-.676-.016-.708a1.082,1.082,0,0,1,1.034-1.084C148,387.1,148.669,387.1,148.692,387.1Z" transform="translate(-146.644 -384.36)"/><path class="n" d="M148.817,387a1.086,1.086,0,0,1,1.086,1.032c0,.02.018.676.018.708a1.086,1.086,0,0,1-1.032,1.086c-.02.011-.676.016-.708.016a1.086,1.086,0,0,1-1.086-1.03c-.011-.023-.016-.676-.016-.708a1.086,1.086,0,0,1,1.03-1.086C148.132,387,148.793,387,148.817,387Z" transform="translate(-146.744 -384.282)"/><path class="o" d="M148.935,386.85a1.088,1.088,0,0,1,1.088,1.028c.011.025.018.676.018.708a1.086,1.086,0,0,1-1.028,1.088c-.025.011-.676.018-.708.018a1.088,1.088,0,0,1-1.088-1.028c-.011-.025-.018-.676-.018-.708a1.088,1.088,0,0,1,1.028-1.088C148.252,386.857,148.908,386.85,148.935,386.85Z" transform="translate(-146.837 -384.166)"/><path class="p" d="M149.051,386.73a1.088,1.088,0,0,1,1.091,1.025c.011.025.02.676.02.705a1.091,1.091,0,0,1-1.028,1.091c-.025.011-.676.02-.705.02a1.086,1.086,0,0,1-1.088-1.028c-.014-.025-.02-.676-.02-.705a1.084,1.084,0,0,1,1.025-1.088C148.375,386.737,149.024,386.73,149.051,386.73Z" transform="translate(-146.93 -384.073)"/><path class="q" d="M149.178,386.6a1.088,1.088,0,0,1,1.091,1.023c.014.027.023.676.023.705a1.091,1.091,0,0,1-1.023,1.093c-.027.014-.676.02-.705.02a1.088,1.088,0,0,1-1.091-1.023c-.016-.027-.023-.676-.023-.705a1.091,1.091,0,0,1,1.025-1.091C148.5,386.609,149.151,386.6,149.178,386.6Z" transform="translate(-147.031 -383.972)"/><path class="r" d="M149.3,386.48a1.091,1.091,0,0,1,1.093,1.019c.016.029.023.676.023.708a1.088,1.088,0,0,1-1.019,1.091c-.029.016-.676.025-.705.025a1.091,1.091,0,0,1-1.093-1.021c-.016-.029-.025-.676-.025-.705a1.093,1.093,0,0,1,1.021-1.093C148.62,386.487,149.262,386.48,149.3,386.48Z" transform="translate(-147.124 -383.879)"/><path class="r" d="M149.422,386.35a1.1,1.1,0,0,1,1.1,1.019c.016.029.025.676.025.705a1.093,1.093,0,0,1-1.019,1.093c-.029.016-.676.025-.705.025a1.093,1.093,0,0,1-1.093-1.016c-.016-.032-.025-.676-.025-.705a1.1,1.1,0,0,1,1.016-1.1C148.748,386.359,149.386,386.35,149.422,386.35Z" transform="translate(-147.224 -383.779)"/><path class="s" d="M149.539,386.23a1.1,1.1,0,0,1,1.1,1.014c.016.034.025.676.025.705a1.1,1.1,0,0,1-1.014,1.1c-.032.018-.676.027-.705.027a1.1,1.1,0,0,1-1.1-1.014c-.018-.034-.027-.676-.027-.705a1.1,1.1,0,0,1,1.014-1.1C148.868,386.239,149.5,386.23,149.539,386.23Z" transform="translate(-147.317 -383.686)"/><path class="t" d="M149.665,386.11a1.1,1.1,0,0,1,1.1,1.012c.018.034.029.663.029.7a1.1,1.1,0,0,1-1.014,1.1c-.034.018-.663.029-.7.029a1.1,1.1,0,0,1-1.1-1.014c-.018-.034-.027-.663-.027-.7a1.1,1.1,0,0,1,1.012-1.1C149,386.119,149.624,386.11,149.665,386.11Z" transform="translate(-147.418 -383.593)"/><path class="u" d="M149.783,386a1.1,1.1,0,0,1,1.1,1.01c.018.036.029.66.029.7a1.1,1.1,0,0,1-1.01,1.1c-.036.02-.66.029-.7.029a1.1,1.1,0,0,1-1.1-1.01c-.018-.036-.029-.66-.029-.7a1.1,1.1,0,0,1,1.01-1.1A5.6,5.6,0,0,1,149.783,386Z" transform="translate(-147.511 -383.508)"/><path class="u" d="M149.9,385.86a1.1,1.1,0,0,1,1.1,1.005c.018.038.029.658.029.7a1.1,1.1,0,0,1-1.005,1.1c-.038.02-.658.032-.7.032a1.1,1.1,0,0,1-1.1-1.007c-.02-.038-.032-.658-.032-.7a1.1,1.1,0,0,1,1.007-1.1C149.236,385.871,149.855,385.86,149.9,385.86Z" transform="translate(-147.604 -383.399)"/><path class="v" d="M150.026,385.73a1.109,1.109,0,0,1,1.1,1.005c.02.038.032.654.032.7a1.1,1.1,0,0,1-1.005,1.1c-.038.02-.654.032-.7.032a1.1,1.1,0,0,1-1.1-1c-.02-.041-.032-.656-.032-.7a1.1,1.1,0,0,1,1-1.1C149.375,385.741,149.979,385.73,150.026,385.73Z" transform="translate(-147.705 -383.299)"/><path class="w" d="M150.144,385.61a1.106,1.106,0,0,1,1.1,1c.023.043.034.654.034.7a1.106,1.106,0,0,1-1,1.1c-.041.023-.651.034-.7.034a1.106,1.106,0,0,1-1.106-1c-.023-.043-.034-.654-.034-.7a1.107,1.107,0,0,1,1-1.1C149.483,385.621,150.094,385.61,150.144,385.61Z" transform="translate(-147.798 -383.206)"/><path class="x" d="M150.269,385.49a1.109,1.109,0,0,1,1.106,1c.023.043.036.649.036.7a1.109,1.109,0,0,1-1,1.107c-.043.023-.649.036-.7.036a1.109,1.109,0,0,1-1.106-1c-.023-.043-.034-.649-.034-.7a1.109,1.109,0,0,1,1-1.106C149.611,385.5,150.217,385.49,150.269,385.49Z" transform="translate(-147.898 -383.113)"/><path class="x" d="M150.387,385.36a1.113,1.113,0,0,1,1.109,1c.023.045.036.647.036.7a1.111,1.111,0,0,1-1,1.109c-.045.023-.647.036-.7.036a1.109,1.109,0,0,1-1.109-1c-.023-.045-.036-.647-.036-.7a1.113,1.113,0,0,1,1-1.109C149.731,385.373,150.337,385.36,150.387,385.36Z" transform="translate(-147.991 -383.012)"/><path class="y" d="M150.5,385.24a1.127,1.127,0,0,1,1.111.992c.023.047.036.645.036.7a1.113,1.113,0,0,1-.992,1.111,6.509,6.509,0,0,1-.7.038,1.113,1.113,0,0,1-1.111-.994,6.521,6.521,0,0,1-.038-.7,1.127,1.127,0,0,1,.994-1.111C149.851,385.254,150.448,385.24,150.5,385.24Z" transform="translate(-148.084 -382.919)"/><path class="z" d="M150.63,385.11a1.127,1.127,0,0,1,1.111.992,5.917,5.917,0,0,1,.041.7,1.127,1.127,0,0,1-.992,1.113,6.421,6.421,0,0,1-.7.038,1.127,1.127,0,0,1-1.113-.989,6.5,6.5,0,0,1-.038-.7,1.127,1.127,0,0,1,.989-1.113A6.511,6.511,0,0,1,150.63,385.11Z" transform="translate(-148.185 -382.818)"/><path class="aa" d="M150.748,385a1.127,1.127,0,0,1,1.113.987,5.907,5.907,0,0,1,.041.7,1.127,1.127,0,0,1-.987,1.115,6.415,6.415,0,0,1-.7.041,1.127,1.127,0,0,1-1.115-.987,6.506,6.506,0,0,1-.041-.7,1.127,1.127,0,0,1,.987-1.115A5.97,5.97,0,0,1,150.748,385Z" transform="translate(-148.278 -382.733)"/><path class="ab" d="M150.871,384.87a1.127,1.127,0,0,1,1.127.985,5.893,5.893,0,0,1,.043.7,1.127,1.127,0,0,1-.987,1.127,5.888,5.888,0,0,1-.7.043,1.127,1.127,0,0,1-1.127-.987,5.9,5.9,0,0,1-.041-.7,1.127,1.127,0,0,1,.985-1.127A5.892,5.892,0,0,1,150.871,384.87Z" transform="translate(-148.379 -382.632)"/><path class="ac" d="M150.989,384.74a1.127,1.127,0,0,1,1.127.982,5.9,5.9,0,0,1,.043.7,1.127,1.127,0,0,1-.982,1.127,5.9,5.9,0,0,1-.7.043,1.127,1.127,0,0,1-1.127-.983,5.9,5.9,0,0,1-.043-.7,1.127,1.127,0,0,1,.983-1.127A5.888,5.888,0,0,1,150.989,384.74Z" transform="translate(-148.472 -382.531)"/><path class="ad" d="M151.106,384.62a1.127,1.127,0,0,1,1.127.978,5.454,5.454,0,0,1,.045.7,1.127,1.127,0,0,1-.978,1.127,5.456,5.456,0,0,1-.7.045,1.127,1.127,0,0,1-1.127-.98,5.9,5.9,0,0,1-.045-.7,1.127,1.127,0,0,1,.98-1.127A5.454,5.454,0,0,1,151.106,384.62Z" transform="translate(-148.564 -382.438)"/><path class="ae" d="M151.252,384.49a1.127,1.127,0,0,1,1.127.978,5.394,5.394,0,0,1,.047.7,1.127,1.127,0,0,1-.978,1.127,5.394,5.394,0,0,1-.7.045,1.127,1.127,0,0,1-1.127-.976,5.448,5.448,0,0,1-.045-.7,1.127,1.127,0,0,1,.976-1.127A5.445,5.445,0,0,1,151.252,384.49Z" transform="translate(-148.681 -382.338)"/><path class="ae" d="M151.35,384.37a1.238,1.238,0,0,1,1.127.974c.02.063.047.624.047.7a1.24,1.24,0,0,1-.974,1.127c-.063.02-.624.047-.7.047a1.242,1.242,0,0,1-1.127-.974c-.018-.065-.047-.626-.047-.7a1.238,1.238,0,0,1,.974-1.127C150.719,384.4,151.28,384.37,151.35,384.37Z" transform="translate(-148.758 -382.245)"/><path class="af" d="M151.475,384.25a1.238,1.238,0,0,1,1.127.971c.02.065.05.622.05.694a1.238,1.238,0,0,1-.971,1.127c-.068.02-.622.05-.7.05a1.24,1.24,0,0,1-1.127-.973c-.02-.065-.047-.622-.047-.694a1.238,1.238,0,0,1,.971-1.127C150.847,384.277,151.4,384.25,151.475,384.25Z" transform="translate(-148.859 -382.152)"/><path class="ag" d="M151.593,384.12a1.241,1.241,0,0,1,1.127.969c.023.068.052.62.052.694a1.236,1.236,0,0,1-.969,1.127c-.068.02-.62.05-.694.05a1.241,1.241,0,0,1-1.127-.969c-.023-.068-.052-.62-.052-.694a1.241,1.241,0,0,1,.969-1.127C150.967,384.149,151.523,384.12,151.593,384.12Z" transform="translate(-148.952 -382.051)"/><path class="ah" d="M151.711,384a1.239,1.239,0,0,1,1.127.965c.023.07.052.617.052.694a1.237,1.237,0,0,1-.964,1.127c-.07.02-.617.052-.694.052a1.239,1.239,0,0,1-1.127-.967c-.023-.07-.054-.617-.054-.694a1.239,1.239,0,0,1,.967-1.127C151.087,384.029,151.634,384,151.711,384Z" transform="translate(-149.045 -381.958)"/><path class="ah" d="M151.836,383.87a1.239,1.239,0,0,1,1.127.965,6.926,6.926,0,0,1,.054.694,1.239,1.239,0,0,1-.964,1.127,6.323,6.323,0,0,1-.692.054,1.237,1.237,0,0,1-1.127-.962,6.414,6.414,0,0,1-.054-.694,1.239,1.239,0,0,1,.962-1.127A5.883,5.883,0,0,1,151.836,383.87Z" transform="translate(-149.146 -381.858)"/><path class="ai" d="M151.946,383.75a1.225,1.225,0,0,1,1.127.96c.023.074.054.611.054.694a1.227,1.227,0,0,1-.96,1.127,6.3,6.3,0,0,1-.694.056,1.229,1.229,0,0,1-1.127-.96,6.392,6.392,0,0,1-.056-.694,1.227,1.227,0,0,1,.96-1.127A6.5,6.5,0,0,1,151.946,383.75Z" transform="translate(-149.231 -381.765)"/><path class="aj" d="M152.072,383.62a1.225,1.225,0,0,1,1.127.96,6.305,6.305,0,0,1,.056.7,1.227,1.227,0,0,1-.958,1.127,6.367,6.367,0,0,1-.694.059,1.227,1.227,0,0,1-1.127-.96,6.309,6.309,0,0,1-.056-.692,1.225,1.225,0,0,1,.958-1.127A6.308,6.308,0,0,1,152.072,383.62Z" transform="translate(-149.332 -381.664)"/><path class="ak" d="M152.2,383.5a1.225,1.225,0,0,1,1.127.955,6.312,6.312,0,0,1,.059.692,1.225,1.225,0,0,1-.955,1.127,5.79,5.79,0,0,1-.692.059,1.225,1.225,0,0,1-1.127-.955,6.306,6.306,0,0,1-.059-.692,1.225,1.225,0,0,1,.955-1.127A6.311,6.311,0,0,1,152.2,383.5Z" transform="translate(-149.432 -381.571)"/><path class="al" d="M152.33,383.38a1.245,1.245,0,0,1,1.138.951,5.8,5.8,0,0,1,.059.692,1.245,1.245,0,0,1-.951,1.138,5.8,5.8,0,0,1-.7.063,1.244,1.244,0,0,1-1.138-.953,5.761,5.761,0,0,1-.061-.692,1.244,1.244,0,0,1,.953-1.138A6.311,6.311,0,0,1,152.33,383.38Z" transform="translate(-149.533 -381.478)"/><path class="am" d="M152.441,383.25a1.25,1.25,0,0,1,1.14.951,5.723,5.723,0,0,1,.061.69,1.245,1.245,0,0,1-.951,1.14,5.728,5.728,0,0,1-.69.061,1.247,1.247,0,0,1-1.14-.949,5.764,5.764,0,0,1-.061-.692,1.247,1.247,0,0,1,.949-1.14A5.8,5.8,0,0,1,152.441,383.25Z" transform="translate(-149.626 -381.377)"/><path class="an" d="M152.558,383.13a1.25,1.25,0,0,1,1.143.946,5.769,5.769,0,0,1,.061.69,1.248,1.248,0,0,1-.946,1.143,5.762,5.762,0,0,1-.69.063,1.25,1.25,0,0,1-1.143-.946,5.763,5.763,0,0,1-.063-.692,1.248,1.248,0,0,1,.946-1.14A5.374,5.374,0,0,1,152.558,383.13Z" transform="translate(-149.719 -381.284)"/><path class="ao" d="M152.684,383a1.248,1.248,0,0,1,1.143.946,5.26,5.26,0,0,1,.065.69,1.25,1.25,0,0,1-.944,1.143,5.34,5.34,0,0,1-.69.065,1.25,1.25,0,0,1-1.145-.946,5.264,5.264,0,0,1-.063-.69,1.25,1.25,0,0,1,.944-1.143,5.3,5.3,0,0,1,.69-.065Z" transform="translate(-149.82 -381.184)"/><path class="ap" d="M152.8,382.88a1.253,1.253,0,0,1,1.145.942,5.294,5.294,0,0,1,.065.69,1.253,1.253,0,0,1-.942,1.145,5.3,5.3,0,0,1-.69.065,1.253,1.253,0,0,1-1.145-.942,5.257,5.257,0,0,1-.065-.69,1.253,1.253,0,0,1,.942-1.145A5.3,5.3,0,0,1,152.8,382.88Z" transform="translate(-149.913 -381.091)"/><path class="aq" d="M152.919,382.76a1.254,1.254,0,0,1,1.147.937,5.291,5.291,0,0,1,.065.69,1.254,1.254,0,0,1-.937,1.147,5.278,5.278,0,0,1-.69.068,1.256,1.256,0,0,1-1.147-.94,5.265,5.265,0,0,1-.068-.687,1.257,1.257,0,0,1,.94-1.149A5.3,5.3,0,0,1,152.919,382.76Z" transform="translate(-150.006 -380.998)"/><path class="ar" d="M153.045,382.63a1.259,1.259,0,0,1,1.149.937,5.264,5.264,0,0,1,.068.676,1.259,1.259,0,0,1-.937,1.149,4.857,4.857,0,0,1-.687.068,1.259,1.259,0,0,1-1.149-.935,4.9,4.9,0,0,1-.068-.676,1.255,1.255,0,0,1,.935-1.149A4.931,4.931,0,0,1,153.045,382.63Z" transform="translate(-150.106 -380.897)"/><path class="as" d="M153.2,382.51a1.258,1.258,0,0,1,1.152.933,4.9,4.9,0,0,1,.07.687,1.26,1.26,0,0,1-.933,1.151,4.879,4.879,0,0,1-.676.07,1.26,1.26,0,0,1-1.152-.933,4.9,4.9,0,0,1-.07-.687,1.257,1.257,0,0,1,.935-1.152A4.861,4.861,0,0,1,153.2,382.51Z" transform="translate(-150.238 -380.804)"/><path class="at" d="M153.286,382.38a1.26,1.26,0,0,1,1.154.933,4.526,4.526,0,0,1,.072.676,1.263,1.263,0,0,1-.931,1.154,4.881,4.881,0,0,1-.687.07,1.263,1.263,0,0,1-1.154-.931,4.829,4.829,0,0,1-.07-.676,1.26,1.26,0,0,1,.931-1.154,4.552,4.552,0,0,1,.685-.072Z" transform="translate(-150.3 -380.703)"/><path class="au" d="M153.484,382.26a1.266,1.266,0,0,1,1.156.928,4.55,4.55,0,0,1,.072.676,1.266,1.266,0,0,1-.928,1.156,4.517,4.517,0,0,1-.676.072,1.266,1.266,0,0,1-1.156-.928,4.521,4.521,0,0,1-.072-.676,1.266,1.266,0,0,1,.928-1.156A4.554,4.554,0,0,1,153.484,382.26Z" transform="translate(-150.463 -380.61)"/><path class="av" d="M153.552,382.14a1.269,1.269,0,0,1,1.158.924,4.547,4.547,0,0,1,.072.687,1.267,1.267,0,0,1-.924,1.156,4.555,4.555,0,0,1-.676.074,1.266,1.266,0,0,1-1.158-.926,4.52,4.52,0,0,1-.074-.676,1.264,1.264,0,0,1,.926-1.156A4.288,4.288,0,0,1,153.552,382.14Z" transform="translate(-150.517 -380.518)"/><path class="aw" d="M153.678,382a1.264,1.264,0,0,1,1.158.924,4.25,4.25,0,0,1,.077.676,1.269,1.269,0,0,1-.924,1.158,4.224,4.224,0,0,1-.676.074,1.269,1.269,0,0,1-1.158-.922,4.518,4.518,0,0,1-.074-.676,1.265,1.265,0,0,1,.922-1.158A4.283,4.283,0,0,1,153.678,382Z" transform="translate(-150.617 -380.409)"/><path class="aw" d="M153.8,381.89a1.268,1.268,0,0,1,1.161.919,4.251,4.251,0,0,1,.077.676,1.271,1.271,0,0,1-.919,1.161,4.253,4.253,0,0,1-.676.077,1.273,1.273,0,0,1-1.161-.919,4.247,4.247,0,0,1-.077-.676,1.27,1.27,0,0,1,.922-1.161A4.194,4.194,0,0,1,153.8,381.89Z" transform="translate(-150.71 -380.324)"/><path class="ax" d="M153.921,381.76a1.271,1.271,0,0,1,1.163.919,4.193,4.193,0,0,1,.079.676,1.275,1.275,0,0,1-.917,1.163,4.247,4.247,0,0,1-.676.077,1.273,1.273,0,0,1-1.163-.917,4.2,4.2,0,0,1-.077-.676,1.273,1.273,0,0,1,.917-1.163,4.192,4.192,0,0,1,.674-.079Z" transform="translate(-150.811 -380.223)"/><path class="ay" d="M154.062,381.64a1.276,1.276,0,0,1,1.165.915,3.956,3.956,0,0,1,.079.676,1.275,1.275,0,0,1-.906,1.172,3.952,3.952,0,0,1-.676.079,1.275,1.275,0,0,1-1.165-.915,4.192,4.192,0,0,1-.079-.676,1.275,1.275,0,0,1,.915-1.165A4.2,4.2,0,0,1,154.062,381.64Z" transform="translate(-150.927 -380.13)"/><path class="az" d="M154.18,381.52a1.275,1.275,0,0,1,1.165.9,3.771,3.771,0,0,1,.081.676,1.278,1.278,0,0,1-.9,1.167,3.985,3.985,0,0,1-.676.081,1.278,1.278,0,0,1-1.165-.913,3.75,3.75,0,0,1-.083-.676,1.278,1.278,0,0,1,.913-1.165A3.748,3.748,0,0,1,154.18,381.52Z" transform="translate(-151.02 -380.037)"/><path class="ba" d="M154.3,381.39a1.278,1.278,0,0,1,1.167.9,3.748,3.748,0,0,1,.083.676,1.282,1.282,0,0,1-.9,1.17,3.923,3.923,0,0,1-.676.081,1.275,1.275,0,0,1-1.167-.9,3.748,3.748,0,0,1-.083-.676,1.275,1.275,0,0,1,.9-1.167A3.747,3.747,0,0,1,154.3,381.39Z" transform="translate(-151.113 -379.936)"/><path class="bb" d="M154.4,381.27a1.282,1.282,0,0,1,1.17.9,3.748,3.748,0,0,1,.083.676,1.278,1.278,0,0,1-.9,1.167,3.557,3.557,0,0,1-.676.086,1.28,1.28,0,0,1-1.17-.9,3.56,3.56,0,0,1-.086-.676,1.28,1.28,0,0,1,.9-1.17A3.7,3.7,0,0,1,154.4,381.27Z" transform="translate(-151.191 -379.844)"/><path class="bc" d="M154.525,381.14a1.289,1.289,0,0,1,1.172.9,3.7,3.7,0,0,1,.086.676,1.282,1.282,0,0,1-.9,1.17,3.559,3.559,0,0,1-.676.086,1.282,1.282,0,0,1-1.17-.9,3.515,3.515,0,0,1-.086-.676,1.287,1.287,0,0,1,.9-1.172A3.7,3.7,0,0,1,154.525,381.14Z" transform="translate(-151.291 -379.743)"/><path class="bd" d="M154.627,381a1.282,1.282,0,0,1,1.172.9,3.512,3.512,0,0,1,.088.676,1.282,1.282,0,0,1-.9,1.172,3.511,3.511,0,0,1-.676.088,1.282,1.282,0,0,1-1.172-.9,3.515,3.515,0,0,1-.088-.676,1.282,1.282,0,0,1,.9-1.172A3.514,3.514,0,0,1,154.627,381Z" transform="translate(-151.369 -379.634)"/><path class="be" d="M154.73,380.9a1.287,1.287,0,0,1,1.174.9,3.379,3.379,0,0,1,.088.676,1.287,1.287,0,0,1-.9,1.174,3.346,3.346,0,0,1-.676.09,1.289,1.289,0,0,1-1.174-.9,3.348,3.348,0,0,1-.09-.676,1.289,1.289,0,0,1,.9-1.174,3.344,3.344,0,0,1,.678-.09Z" transform="translate(-151.446 -379.557)"/><path class="bf" d="M154.847,380.77a1.289,1.289,0,0,1,1.176.9,3.343,3.343,0,0,1,.09.676,1.289,1.289,0,0,1-.9,1.176,3.322,3.322,0,0,1-.676.09,1.289,1.289,0,0,1-1.176-.9,3.347,3.347,0,0,1-.09-.676,1.291,1.291,0,0,1,.9-1.176A3.349,3.349,0,0,1,154.847,380.77Z" transform="translate(-151.539 -379.456)"/><path class="bg" d="M154.95,380.65a1.293,1.293,0,0,1,1.179.9,3.346,3.346,0,0,1,.09.676,1.294,1.294,0,0,1-.9,1.179,3.2,3.2,0,0,1-.676.092,1.294,1.294,0,0,1-1.179-.9,3.2,3.2,0,0,1-.092-.676,1.291,1.291,0,0,1,.9-1.179A3.3,3.3,0,0,1,154.95,380.65Z" transform="translate(-151.617 -379.363)"/><path class="bh" d="M155.106,380.52a1.3,1.3,0,0,1,1.179.9,3.2,3.2,0,0,1,.095.676,1.3,1.3,0,0,1-.89,1.181,3.2,3.2,0,0,1-.676.092,1.294,1.294,0,0,1-1.181-.89,3.155,3.155,0,0,1-.092-.676,1.293,1.293,0,0,1,.89-1.179,3.15,3.15,0,0,1,.676-.106Z" transform="translate(-151.748 -379.262)"/><path class="bi" d="M155.216,380.4a1.3,1.3,0,0,1,1.181.888,3.156,3.156,0,0,1,.095.676,1.294,1.294,0,0,1-.888,1.181,3.154,3.154,0,0,1-.676.095,1.3,1.3,0,0,1-1.183-.888,3.154,3.154,0,0,1-.095-.676,1.3,1.3,0,0,1,.888-1.181A3.151,3.151,0,0,1,155.216,380.4Z" transform="translate(-151.834 -379.17)"/><path class="bj" d="M155.334,380.28a1.3,1.3,0,0,1,1.192.883,3.039,3.039,0,0,1,.1.676,1.3,1.3,0,0,1-.886,1.183,3.019,3.019,0,0,1-.676.1,1.3,1.3,0,0,1-1.194-.874,3.021,3.021,0,0,1-.1-.676,1.3,1.3,0,0,1,.886-1.185A3.022,3.022,0,0,1,155.334,380.28Z" transform="translate(-151.927 -379.077)"/><path class="bk" d="M155.459,380.15a1.3,1.3,0,0,1,1.185.883,3,3,0,0,1,.1.676,1.3,1.3,0,0,1-.883,1.185,3,3,0,0,1-.676.1,1.3,1.3,0,0,1-1.185-.881,3.019,3.019,0,0,1-.1-.676,1.3,1.3,0,0,1,.881-1.188A3.021,3.021,0,0,1,155.459,380.15Z" transform="translate(-152.027 -378.976)"/><path class="bl" d="M155.575,380a1.3,1.3,0,0,1,1.19.879,3.019,3.019,0,0,1,.1.676,1.3,1.3,0,0,1-.879,1.188,2.9,2.9,0,0,1-.676.1,1.3,1.3,0,0,1-1.188-.879,2.9,2.9,0,0,1-.1-.676,1.3,1.3,0,0,1,.881-1.188A2.86,2.86,0,0,1,155.575,380Z" transform="translate(-152.12 -378.86)"/><path class="bm" d="M155.67,379.9a1.309,1.309,0,0,1,1.19.877,2.9,2.9,0,0,1,.1.676,1.309,1.309,0,0,1-.877,1.19,2.9,2.9,0,0,1-.676.1,1.3,1.3,0,0,1-1.19-.877,2.861,2.861,0,0,1-.1-.676A1.3,1.3,0,0,1,155,380,2.863,2.863,0,0,1,155.67,379.9Z" transform="translate(-152.198 -378.782)"/><path class="bn" d="M155.81,379.78a1.312,1.312,0,0,1,1.192.874,2.75,2.75,0,0,1,.1.676,1.312,1.312,0,0,1-.874,1.192,2.862,2.862,0,0,1-.676.1,1.312,1.312,0,0,1-1.192-.874,2.863,2.863,0,0,1-.1-.676,1.311,1.311,0,0,1,.874-1.192A2.862,2.862,0,0,1,155.81,379.78Z" transform="translate(-152.306 -378.689)"/><path class="bo" d="M155.928,379.66a1.309,1.309,0,0,1,1.194.87,2.749,2.749,0,0,1,.1.676,1.312,1.312,0,0,1-.872,1.194,2.753,2.753,0,0,1-.676.1,1.312,1.312,0,0,1-1.194-.872,2.75,2.75,0,0,1-.1-.676,1.312,1.312,0,0,1,.872-1.194,2.746,2.746,0,0,1,.676-.1Z" transform="translate(-152.399 -378.596)"/><path class="bp" d="M156.046,379.53a1.316,1.316,0,0,1,1.2.87,2.733,2.733,0,0,1,.1.676,1.316,1.316,0,0,1-.87,1.194,2.731,2.731,0,0,1-.676.1,1.316,1.316,0,0,1-1.2-.868,2.749,2.749,0,0,1-.1-.676,1.312,1.312,0,0,1,.868-1.194A2.647,2.647,0,0,1,156.046,379.53Z" transform="translate(-152.492 -378.496)"/><path class="bq" d="M156.171,379.41a1.314,1.314,0,0,1,1.2.865,2.631,2.631,0,0,1,.106.676,1.316,1.316,0,0,1-.865,1.2,2.629,2.629,0,0,1-.676.106,1.321,1.321,0,0,1-1.2-.865,2.648,2.648,0,0,1-.106-.676,1.318,1.318,0,0,1,.868-1.2A2.612,2.612,0,0,1,156.171,379.41Z" transform="translate(-152.593 -378.403)"/><path class="br" d="M156.3,379.28a1.321,1.321,0,0,1,1.2.863,2.553,2.553,0,0,1,.108.676,1.323,1.323,0,0,1-.863,1.2,2.648,2.648,0,0,1-.676.106,1.321,1.321,0,0,1-1.2-.863,2.614,2.614,0,0,1-.106-.676,1.318,1.318,0,0,1,.863-1.2A2.614,2.614,0,0,1,156.3,379.28Z" transform="translate(-152.694 -378.302)"/><path class="bs" d="M156.391,379.16a1.325,1.325,0,0,1,1.2.865,2.522,2.522,0,0,1,.108.676,1.325,1.325,0,0,1-.861,1.2,2.523,2.523,0,0,1-.676.108,1.325,1.325,0,0,1-1.2-.861,2.521,2.521,0,0,1-.108-.676,1.325,1.325,0,0,1,.861-1.2A2.52,2.52,0,0,1,156.391,379.16Z" transform="translate(-152.763 -378.209)"/><path class="bt" d="M156.532,379a1.325,1.325,0,0,1,1.2.856,2.521,2.521,0,0,1,.11.676,1.327,1.327,0,0,1-.859,1.2,2.521,2.521,0,0,1-.676.11,1.327,1.327,0,0,1-1.2-.859,2.521,2.521,0,0,1-.108-.676,1.321,1.321,0,0,1,.856-1.2A2.437,2.437,0,0,1,156.532,379Z" transform="translate(-152.879 -378.085)"/><path class="bu" d="M156.681,378.91a1.323,1.323,0,0,1,1.2.856,2.421,2.421,0,0,1,.113.676,1.33,1.33,0,0,1-.845,1.192,2.4,2.4,0,0,1-.676.11,1.325,1.325,0,0,1-1.2-.854,2.436,2.436,0,0,1-.113-.676,1.325,1.325,0,0,1,.854-1.2A2.437,2.437,0,0,1,156.681,378.91Z" transform="translate(-153.003 -378.015)"/><path class="bv" d="M156.74,378.79a1.327,1.327,0,0,1,1.206.852,2.339,2.339,0,0,1,.113.676,1.332,1.332,0,0,1-.852,1.208,2.421,2.421,0,0,1-.676.113,1.332,1.332,0,0,1-1.206-.852,2.357,2.357,0,0,1-.115-.676,1.332,1.332,0,0,1,.854-1.206A2.409,2.409,0,0,1,156.74,378.79Z" transform="translate(-153.042 -377.922)"/><path class="bw" d="M156.886,378.66a1.336,1.336,0,0,1,1.208.85,2.343,2.343,0,0,1,.115.676,1.336,1.336,0,0,1-.85,1.208,2.42,2.42,0,0,1-.676.113,1.33,1.33,0,0,1-1.208-.85,2.327,2.327,0,0,1-.115-.676,1.334,1.334,0,0,1,.85-1.208A2.327,2.327,0,0,1,156.886,378.66Z" transform="translate(-153.158 -377.822)"/><path class="bx" d="M157,378.54a1.339,1.339,0,0,1,1.21.847,2.328,2.328,0,0,1,.115.676,1.332,1.332,0,0,1-.847,1.208,2.254,2.254,0,0,1-.676.117,1.334,1.334,0,0,1-1.208-.847,2.254,2.254,0,0,1-.117-.676,1.338,1.338,0,0,1,.847-1.21,2.327,2.327,0,0,1,.676-.115Z" transform="translate(-153.251 -377.729)"/><path class="by" d="M157.129,378.42a1.334,1.334,0,0,1,1.21.843,2.253,2.253,0,0,1,.119.676,1.336,1.336,0,0,1-.845,1.21,2.255,2.255,0,0,1-.676.119,1.336,1.336,0,0,1-1.21-.845,2.253,2.253,0,0,1-.117-.676,1.334,1.334,0,0,1,.843-1.21A2.253,2.253,0,0,1,157.129,378.42Z" transform="translate(-153.352 -377.636)"/><path class="bz" d="M157.239,378.29a1.339,1.339,0,0,1,1.212.843,2.159,2.159,0,0,1,.119.676,1.336,1.336,0,0,1-.843,1.212,2.158,2.158,0,0,1-.676.119,1.338,1.338,0,0,1-1.212-.841,2.185,2.185,0,0,1-.119-.676,1.352,1.352,0,0,1,.841-1.212A2.185,2.185,0,0,1,157.239,378.29Z" transform="translate(-153.437 -377.535)"/><path class="ca" d="M157.357,378.17a1.352,1.352,0,0,1,1.215.838,2.172,2.172,0,0,1,.119.676,1.352,1.352,0,0,1-.838,1.215,2.173,2.173,0,0,1-.676.122,1.352,1.352,0,0,1-1.215-.838,2.175,2.175,0,0,1-.122-.676,1.352,1.352,0,0,1,.841-1.215A2.159,2.159,0,0,1,157.357,378.17Z" transform="translate(-153.53 -377.442)"/><path class="cb" d="M157.482,378a1.352,1.352,0,0,1,1.217.836,2.172,2.172,0,0,1,.122.676,1.352,1.352,0,0,1-.836,1.217,2.106,2.106,0,0,1-.676.122,1.352,1.352,0,0,1-1.217-.836,2.084,2.084,0,0,1-.122-.676,1.352,1.352,0,0,1,.836-1.217A2.159,2.159,0,0,1,157.482,378Z" transform="translate(-153.631 -377.31)"/><path class="cc" d="M157.6,377.92a1.352,1.352,0,0,1,1.217.834,2.084,2.084,0,0,1,.124.665,1.352,1.352,0,0,1-.843,1.224,2.085,2.085,0,0,1-.665.124,1.352,1.352,0,0,1-1.219-.834,2.084,2.084,0,0,1-.124-.665,1.352,1.352,0,0,1,.834-1.219A2.087,2.087,0,0,1,157.6,377.92Z" transform="translate(-153.724 -377.249)"/><path class="cd" d="M157.718,377.8a1.352,1.352,0,0,1,1.219.829,2.029,2.029,0,0,1,.126.676,1.352,1.352,0,0,1-.832,1.219,2.031,2.031,0,0,1-.676.126,1.352,1.352,0,0,1-1.221-.832,2.028,2.028,0,0,1-.124-.676,1.352,1.352,0,0,1,.829-1.221A2.029,2.029,0,0,1,157.718,377.8Z" transform="translate(-153.817 -377.155)"/><path class="ce" d="M157.872,377.67a1.352,1.352,0,0,1,1.224.829,2.015,2.015,0,0,1,.126.665,1.352,1.352,0,0,1-.829,1.221,2,2,0,0,1-.665.126,1.352,1.352,0,0,1-1.221-.827,2.028,2.028,0,0,1-.126-.665,1.352,1.352,0,0,1,.827-1.224A2.028,2.028,0,0,1,157.872,377.67Z" transform="translate(-153.949 -377.055)"/><path class="cf" d="M157.99,377.55a1.352,1.352,0,0,1,1.226.825,2.029,2.029,0,0,1,.126.676,1.352,1.352,0,0,1-.825,1.224,1.958,1.958,0,0,1-.665.128,1.352,1.352,0,0,1-1.224-.827,1.946,1.946,0,0,1-.128-.662,1.352,1.352,0,0,1,.827-1.226,2,2,0,0,1,.663-.137Z" transform="translate(-154.041 -376.962)"/><path class="cg" d="M158.076,377.42a1.352,1.352,0,0,1,1.226.823,1.918,1.918,0,0,1,.131.665,1.352,1.352,0,0,1-.823,1.226,1.967,1.967,0,0,1-.676.128,1.352,1.352,0,0,1-1.226-.822,1.946,1.946,0,0,1-.128-.663,1.352,1.352,0,0,1,.823-1.226A1.9,1.9,0,0,1,158.076,377.42Z" transform="translate(-154.103 -376.861)"/><path class="ch" d="M158.233,377.3a1.352,1.352,0,0,1,1.228.82,1.9,1.9,0,0,1,.131.663,1.352,1.352,0,0,1-.82,1.228,1.9,1.9,0,0,1-.663.131,1.352,1.352,0,0,1-1.228-.82,1.9,1.9,0,0,1-.131-.663,1.352,1.352,0,0,1,.82-1.228A1.9,1.9,0,0,1,158.233,377.3Z" transform="translate(-154.235 -376.768)"/><path class="ci" d="M158.358,377.18a1.366,1.366,0,0,1,1.23.816,1.9,1.9,0,0,1,.133.663,1.368,1.368,0,0,1-.818,1.23,1.9,1.9,0,0,1-.663.133,1.368,1.368,0,0,1-1.23-.818,1.9,1.9,0,0,1-.131-.663,1.366,1.366,0,0,1,.816-1.23,1.9,1.9,0,0,1,.663-.131Z" transform="translate(-154.336 -376.675)"/><path class="cj" d="M158.476,377.05a1.37,1.37,0,0,1,1.233.816,1.825,1.825,0,0,1,.133.66,1.37,1.37,0,0,1-.814,1.233,1.848,1.848,0,0,1-.663.133,1.368,1.368,0,0,1-1.233-.813,1.848,1.848,0,0,1-.133-.663,1.37,1.37,0,0,1,.814-1.233A1.9,1.9,0,0,1,158.476,377.05Z" transform="translate(-154.429 -376.574)"/><path class="ck" d="M158.594,376.93a1.368,1.368,0,0,1,1.233.811,1.783,1.783,0,0,1,.135.662,1.37,1.37,0,0,1-.811,1.233,1.824,1.824,0,0,1-.66.135,1.372,1.372,0,0,1-1.235-.814,1.826,1.826,0,0,1-.135-.66,1.37,1.37,0,0,1,.813-1.233A1.782,1.782,0,0,1,158.594,376.93Z" transform="translate(-154.522 -376.482)"/><path class="cl" d="M158.719,376.8a1.375,1.375,0,0,1,1.235.809,1.8,1.8,0,0,1,.137.663,1.375,1.375,0,0,1-.809,1.235,1.8,1.8,0,0,1-.663.135,1.375,1.375,0,0,1-1.235-.809,1.78,1.78,0,0,1-.135-.66,1.375,1.375,0,0,1,.809-1.235A1.781,1.781,0,0,1,158.719,376.8Z" transform="translate(-154.622 -376.381)"/><path class="cm" d="M158.837,376.68a1.377,1.377,0,0,1,1.237.807,1.738,1.738,0,0,1,.137.66,1.379,1.379,0,0,1-.807,1.237,1.771,1.771,0,0,1-.66.137,1.379,1.379,0,0,1-1.237-.807,1.783,1.783,0,0,1-.137-.66,1.379,1.379,0,0,1,.807-1.237,1.784,1.784,0,0,1,.66-.137Z" transform="translate(-154.715 -376.288)"/><path class="cn" d="M158.972,376.56a1.381,1.381,0,0,1,1.239.8,1.739,1.739,0,0,1,.14.66,1.384,1.384,0,0,1-.8,1.239,1.741,1.741,0,0,1-.66.14,1.384,1.384,0,0,1-1.239-.8,1.738,1.738,0,0,1-.137-.66,1.381,1.381,0,0,1,.8-1.239A1.738,1.738,0,0,1,158.972,376.56Z" transform="translate(-154.824 -376.195)"/><path class="co" d="M159.08,376.43a1.384,1.384,0,0,1,1.242.8,1.719,1.719,0,0,1,.14.658,1.386,1.386,0,0,1-.8,1.242,1.741,1.741,0,0,1-.66.14,1.386,1.386,0,0,1-1.242-.8,1.739,1.739,0,0,1-.14-.66,1.379,1.379,0,0,1,.8-1.239A1.7,1.7,0,0,1,159.08,376.43Z" transform="translate(-154.909 -376.094)"/><path class="cp" d="M159.2,376.31a1.384,1.384,0,0,1,1.242.8,1.641,1.641,0,0,1,.142.658,1.388,1.388,0,0,1-.8,1.244,1.68,1.68,0,0,1-.658.142,1.384,1.384,0,0,1-1.242-.8,1.643,1.643,0,0,1-.144-.658,1.388,1.388,0,0,1,.8-1.242,1.679,1.679,0,0,1,.658-.142Z" transform="translate(-155.002 -376.001)"/><path class="cq" d="M159.324,376.18a1.39,1.39,0,0,1,1.244.8,1.649,1.649,0,0,1,.144.658,1.4,1.4,0,0,1-.8,1.246,1.68,1.68,0,0,1-.658.142,1.386,1.386,0,0,1-1.244-.8,1.634,1.634,0,0,1-.144-.658,1.388,1.388,0,0,1,.8-1.244A1.643,1.643,0,0,1,159.324,376.18Z" transform="translate(-155.103 -375.901)"/><path class="cr" d="M159.441,376.06a1.4,1.4,0,0,1,1.246.793,1.634,1.634,0,0,1,.144.658,1.39,1.39,0,0,1-.793,1.246,1.631,1.631,0,0,1-.656.144,1.39,1.39,0,0,1-1.246-.793,1.6,1.6,0,0,1-.146-.658,1.4,1.4,0,0,1,.793-1.246A1.635,1.635,0,0,1,159.441,376.06Z" transform="translate(-155.196 -375.808)"/><path class="cs" d="M159.567,375.93a1.4,1.4,0,0,1,1.248.791,1.6,1.6,0,0,1,.146.658,1.393,1.393,0,0,1-.791,1.246,1.6,1.6,0,0,1-.658.149,1.393,1.393,0,0,1-1.246-.791,1.6,1.6,0,0,1-.146-.658,1.39,1.39,0,0,1,.789-1.246A1.6,1.6,0,0,1,159.567,375.93Z" transform="translate(-155.296 -375.707)"/><path class="ct" d="M159.684,375.81a1.4,1.4,0,0,1,1.248.789,1.546,1.546,0,0,1,.149.656,1.4,1.4,0,0,1-.786,1.248,1.563,1.563,0,0,1-.658.149,1.4,1.4,0,0,1-1.248-.786,1.564,1.564,0,0,1-.149-.658,1.4,1.4,0,0,1,.786-1.248A1.564,1.564,0,0,1,159.684,375.81Z" transform="translate(-155.389 -375.614)"/><path class="cu" d="M159.8,375.69a1.4,1.4,0,0,1,1.251.784,1.546,1.546,0,0,1,.149.656,1.4,1.4,0,0,1-.784,1.251,1.515,1.515,0,0,1-.656.151,1.4,1.4,0,0,1-1.251-.786,1.548,1.548,0,0,1-.151-.656,1.4,1.4,0,0,1,.786-1.251A1.547,1.547,0,0,1,159.8,375.69Z" transform="translate(-155.482 -375.521)"/><path class="cv" d="M159.928,375.56a1.406,1.406,0,0,1,1.253.782,1.53,1.53,0,0,1,.151.656,1.4,1.4,0,0,1-.782,1.253,1.514,1.514,0,0,1-.656.151,1.4,1.4,0,0,1-1.253-.782,1.512,1.512,0,0,1-.151-.654,1.408,1.408,0,0,1,.782-1.255A1.514,1.514,0,0,1,159.928,375.56Z" transform="translate(-155.583 -375.42)"/><path class="cw" d="M160.065,375.44a1.408,1.408,0,0,1,1.255.78,1.512,1.512,0,0,1,.151.654,1.406,1.406,0,0,1-.78,1.255,1.484,1.484,0,0,1-.654.153,1.406,1.406,0,0,1-1.255-.78,1.483,1.483,0,0,1-.153-.654,1.406,1.406,0,0,1,.78-1.255A1.485,1.485,0,0,1,160.065,375.44Z" transform="translate(-155.691 -375.327)"/><path class="cx" d="M160.169,375.31a1.411,1.411,0,0,1,1.257.777,1.485,1.485,0,0,1,.155.653A1.411,1.411,0,0,1,160.8,378a1.485,1.485,0,0,1-.653.155,1.411,1.411,0,0,1-1.257-.777,1.483,1.483,0,0,1-.153-.654,1.408,1.408,0,0,1,.775-1.257A1.485,1.485,0,0,1,160.169,375.31Z" transform="translate(-155.777 -375.227)"/><path class="cy" d="M160.286,375.19a1.411,1.411,0,0,1,1.26.775,1.44,1.44,0,0,1,.155.653,1.413,1.413,0,0,1-.773,1.257,1.454,1.454,0,0,1-.654.156,1.413,1.413,0,0,1-1.26-.773,1.454,1.454,0,0,1-.155-.654,1.413,1.413,0,0,1,.773-1.26,1.453,1.453,0,0,1,.654-.156Z" transform="translate(-155.87 -375.134)"/><path class="cz" d="M160.4,375.07a1.42,1.42,0,0,1,1.262.771,1.44,1.44,0,0,1,.155.654,1.413,1.413,0,0,1-.771,1.26,1.442,1.442,0,0,1-.654.158,1.415,1.415,0,0,1-1.26-.773,1.44,1.44,0,0,1-.158-.651,1.422,1.422,0,0,1,.773-1.262A1.438,1.438,0,0,1,160.4,375.07Z" transform="translate(-155.963 -375.041)"/><ellipse class="da" cx="1.422" cy="1.422" rx="1.422" ry="1.422" transform="translate(3.044)"/></g><g class="db" transform="translate(0.027 3.083)"><path class="dc" d="M19.04,29.132h2.842V26.29H19.04v2.842Z" transform="translate(-14.776 -23.448)"/><path class="dd" d="M165.947,401.15H164.53v2.839h2.833v-2.835Z" transform="translate(-160.289 -398.326)"/><path class="de" d="M165.8,401.07h-1.411s-.014,1.408-.014,1.415v1.42h2.828s.014-1.408.014-1.415v-1.413Z" transform="translate(-160.173 -398.264)"/><path class="df" d="M165.679,401h-1.406c-.014,0-.023,1.4-.023,1.413v1.408s1.4.013,1.413.013h1.406s.02-1.4.02-1.415v-1.406C167.092,401,165.69,401,165.679,401Z" transform="translate(-160.072 -398.21)"/><path class="dg" d="M165.561,400.9h-1.4c-.016,0-.027,1.4-.027,1.413v1.413s1.4.016,1.408.016h1.4c.016,0,.029-1.395.029-1.411v-1.408Z" transform="translate(-159.979 -398.133)"/><path class="dh" d="M165.433,400.82h-1.4c-.02,0-.036,1.39-.036,1.408v1.413s1.393.02,1.406.02h1.4c.02,0,.034-1.39.034-1.408v-1.393C166.842,400.836,165.453,400.82,165.433,400.82Z" transform="translate(-159.878 -398.071)"/><path class="di" d="M165.315,400.74h-1.393c-.025,0-.043,1.384-.043,1.406v1.411s1.386.025,1.4.025h1.393c.025,0,.043-1.384.043-1.406v-1.395C166.722,400.758,165.338,400.74,165.315,400.74Z" transform="translate(-159.785 -398.009)"/><path class="dj" d="M165.219,400.65h-1.381c-.027,0-.047,1.379-.047,1.406v1.408c0,.007,1.379.027,1.4.027h1.388c.027,0,.05-1.377.05-1.4V400.7C166.625,400.673,165.246,400.65,165.219,400.65Z" transform="translate(-159.716 -397.939)"/><path class="dk" d="M165.05,400.57h-1.384c-.032,0-.056,1.372-.056,1.4v1.408c0,.007,1.372.032,1.395.032h1.4c.032,0,.056-1.37.056-1.4v-1.384C166.456,400.595,165.086,400.57,165.05,400.57Z" transform="translate(-159.576 -397.877)"/><path class="dl" d="M164.952,400.49h-1.379c-.036,0-.063,1.366-.063,1.4V403.3c0,.007,1.368.036,1.393.036h1.379c.034,0,.063-1.366.063-1.4v-1.379C166.352,400.517,164.986,400.49,164.952,400.49Z" transform="translate(-159.499 -397.815)"/><path class="dm" d="M164.824,400.41H163.45c-.038,0-.07,1.352-.07,1.4v1.4c0,.009,1.363.041,1.39.041h1.375c.038,0,.07-1.352.07-1.4V400.48C166.224,400.439,164.872,400.41,164.824,400.41Z" transform="translate(-159.398 -397.753)"/><path class="dn" d="M164.707,400.32h-1.37c-.043,0-.077,1.352-.077,1.395v1.4c0,.009,1.352.043,1.388.043h1.37c.043,0,.077-1.352.077-1.395V400.4C166.1,400.356,164.75,400.32,164.707,400.32Z" transform="translate(-159.305 -397.683)"/><path class="do" d="M164.579,400.24h-1.363a13.056,13.056,0,0,0-.086,1.393v1.4c0,.011,1.352.047,1.384.047h1.366a13.069,13.069,0,0,0,.083-1.393v-1.366A13.559,13.559,0,0,0,164.579,400.24Z" transform="translate(-159.204 -397.621)"/><path class="dp" d="M164.492,400.16H163.14a12.252,12.252,0,0,0-.09,1.39v1.4c0,.011,1.352.052,1.381.052h1.352a12.286,12.286,0,0,0,.09-1.39v-1.352A10.2,10.2,0,0,0,164.492,400.16Z" transform="translate(-159.142 -397.559)"/><path class="dq" d="M164.351,400.07H163a11.172,11.172,0,0,0-.1,1.388v.85c0,.016,0,.548.011.561s1.339.054,1.377.054h1.352a11.146,11.146,0,0,0,.1-1.386v-1.352A8.706,8.706,0,0,0,164.351,400.07Z" transform="translate(-159.026 -397.49)"/><path class="dr" d="M164.208,400h-1.352a10.248,10.248,0,0,0-.106,1.386v.836c0,.018,0,.548.011.561s1.334.059,1.375.059h1.352a10.24,10.24,0,0,0,.106-1.386V400.1A10.26,10.26,0,0,0,164.208,400Z" transform="translate(-158.91 -397.436)"/><path class="ds" d="M164.082,399.91H162.73a9.781,9.781,0,0,0-.11,1.384v.836c0,.018,0,.543.011.559s1.327.063,1.37.063h1.352a9.8,9.8,0,0,0,.113-1.384v-1.352A10.567,10.567,0,0,0,164.082,399.91Z" transform="translate(-158.809 -397.366)"/><path class="dt" d="M163.942,399.83h-1.352a9.034,9.034,0,0,0-.119,1.379v.836c0,.018,0,.543.011.559s1.323.068,1.37.068H165.2a8.784,8.784,0,0,0,.119-1.381v-1.352A10.477,10.477,0,0,0,163.942,399.83Z" transform="translate(-158.693 -397.304)"/><path class="du" d="M163.891,399.74h-1.325a8.42,8.42,0,0,0-.126,1.379v.834c0,.02,0,.543.011.559s1.316.07,1.366.07h1.339a8.416,8.416,0,0,0,.126-1.377v-1.339A8.95,8.95,0,0,0,163.891,399.74Z" transform="translate(-158.67 -397.234)"/><path class="dv" d="M163.727,399.66h-1.334a8.086,8.086,0,0,0-.133,1.377v.834c0,.02,0,.539.014.557s1.312.074,1.363.074h1.332a7.862,7.862,0,0,0,.133-1.377v-1.332A7.86,7.86,0,0,0,163.727,399.66Z" transform="translate(-158.53 -397.172)"/><path class="dw" d="M163.607,399.58H162.28a7.556,7.556,0,0,0-.14,1.372v.834c0,.023,0,.539.014.557a13.194,13.194,0,0,0,1.352.079h1.33a7.586,7.586,0,0,0,.14-1.375V399.72A7.235,7.235,0,0,0,163.607,399.58Z" transform="translate(-158.438 -397.11)"/><path class="dx" d="M163.481,399.49h-1.323a7.112,7.112,0,0,0-.149,1.372v.832c0,.023,0,.536.016.557a12.5,12.5,0,0,0,1.352.081h1.334a7.1,7.1,0,0,0,.146-1.37v-1.323A7.221,7.221,0,0,0,163.481,399.49Z" transform="translate(-158.337 -397.04)"/><path class="dy" d="M163.362,399.41h-1.318a6.7,6.7,0,0,0-.153,1.37v.829c0,.025,0,.536.016.557s1.293.086,1.352.086h1.321a6.864,6.864,0,0,0,.153-1.37v-1.318A6.864,6.864,0,0,0,163.362,399.41Z" transform="translate(-158.244 -396.979)"/><path class="dz" d="M163.236,399.33h-1.314a6.318,6.318,0,0,0-.162,1.366v.832c0,.025,0,.532.018.554s1.287.09,1.352.09h1.314a6.328,6.328,0,0,0,.16-1.368v-1.323A7.2,7.2,0,0,0,163.236,399.33Z" transform="translate(-158.143 -396.917)"/><path class="ea" d="M163.118,399.24h-1.309a6,6,0,0,0-.169,1.366v.834c0,.027,0,.532.018.554s1.28.092,1.352.092h1.312a6.118,6.118,0,0,0,.167-1.363v-1.312A6.092,6.092,0,0,0,163.118,399.24Z" transform="translate(-158.05 -396.847)"/><path class="eb" d="M163,399.16h-1.3a5.8,5.8,0,0,0-.174,1.352v.827c0,.027,0,.53.016.554s1.275.1,1.352.1h1.3a5.779,5.779,0,0,0,.176-1.352v-1.3A6.054,6.054,0,0,0,163,399.16Z" transform="translate(-157.957 -396.785)"/><path class="ec" d="M162.88,399.08h-1.307a5.509,5.509,0,0,0-.183,1.352v.827c0,.029,0,.53.018.554s1.271.1,1.341.1h1.3a5.51,5.51,0,0,0,.183-1.352v-1.3A5.4,5.4,0,0,0,162.88,399.08Z" transform="translate(-157.857 -396.723)"/><path class="ed" d="M162.753,399h-1.3a5.352,5.352,0,0,0-.187,1.352v.827c0,.029,0,.527.018.552a9.393,9.393,0,0,0,1.339.106h1.287a5.348,5.348,0,0,0,.189-1.352v-1.3A5.134,5.134,0,0,0,162.753,399Z" transform="translate(-157.764 -396.661)"/><path class="ee" d="M162.62,398.91h-1.293a5.115,5.115,0,0,0-.2,1.352v.825a4.984,4.984,0,0,0,.02.552,8.991,8.991,0,0,0,1.336.108h1.289a5.1,5.1,0,0,0,.2-1.352V399.1A5.169,5.169,0,0,0,162.62,398.91Z" transform="translate(-157.655 -396.591)"/><path class="ef" d="M162.51,398.83h-1.287a4.873,4.873,0,0,0-.2,1.352v.825a4.984,4.984,0,0,0,.02.552,8.647,8.647,0,0,0,1.332.113h1.287a4.973,4.973,0,0,0,.2-1.352v-1.287A4.888,4.888,0,0,0,162.51,398.83Z" transform="translate(-157.57 -396.529)"/><path class="eg" d="M162.382,398.75H161.1c-.115,0-.21,1.233-.21,1.352v.823a4.49,4.49,0,0,0,.023.552,8.289,8.289,0,0,0,1.33.117h1.28c.117,0,.21-1.235.21-1.352v-1.28C163.732,398.842,162.492,398.75,162.382,398.75Z" transform="translate(-157.469 -396.467)"/><path class="eh" d="M162.233,398.66h-1.278c-.119,0-.225,1.228-.225,1.352v.823a4.451,4.451,0,0,0,.023.55,7.957,7.957,0,0,0,1.325.119h1.278c.119,0,.225-1.228.225-1.352v-1.275C163.581,398.757,162.353,398.66,162.233,398.66Z" transform="translate(-157.345 -396.397)"/><path class="ei" d="M162.136,398.58h-1.271c-.124,0-.225,1.221-.225,1.352v.823a4.048,4.048,0,0,0,.025.55,7.666,7.666,0,0,0,1.323.124h1.271c.124,0,.225-1.221.225-1.352V398.8C163.482,398.675,162.26,398.58,162.136,398.58Z" transform="translate(-157.276 -396.335)"/><path class="ej" d="M162.034,398.5h-1.269c-.126,0-.225,1.215-.225,1.352v.82a4.395,4.395,0,0,0,.023.548,7.222,7.222,0,0,0,1.321.131h1.269c.126,0,.225-1.217.225-1.352V398.73C163.377,398.613,162.163,398.5,162.034,398.5Z" transform="translate(-157.198 -396.273)"/><path class="ek" d="M161.94,398.41h-1.264c-.131,0-.225,1.21-.225,1.352v.809a4.4,4.4,0,0,0,.023.548,6.987,6.987,0,0,0,1.318.133h1.262c.131,0,.239-1.208.239-1.341v-1.262C163.278,398.518,162.07,398.41,161.94,398.41Z" transform="translate(-157.128 -396.204)"/><path class="el" d="M161.773,398.33h-1.257c-.135,0-.246,1.2-.246,1.339v.82a3.961,3.961,0,0,0,.025.545,6.732,6.732,0,0,0,1.314.137h1.257c.135,0,.246-1.2.246-1.339v-1.257C163.112,398.44,161.908,398.33,161.773,398.33Z" transform="translate(-156.989 -396.142)"/><path class="em" d="M161.655,398.25H160.4c-.137,0-.25,1.2-.25,1.336v.818a3.949,3.949,0,0,0,.025.545,6.515,6.515,0,0,0,1.312.142h1.253c.14,0,.252-1.2.252-1.336V398.5C162.992,398.363,161.793,398.25,161.655,398.25Z" transform="translate(-156.896 -396.08)"/><path class="en" d="M161.528,398.17h-1.248c-.142,0-.259,1.19-.259,1.332v.818a5.421,5.421,0,0,0,.027.545,6.305,6.305,0,0,0,1.307.146H162.6c.144,0,.259-1.192.259-1.334v-1.251C162.862,398.285,161.672,398.17,161.528,398.17Z" transform="translate(-156.795 -396.018)"/><path class="eo" d="M161.409,398.08h-1.244c-.146,0-.266,1.185-.266,1.332v.818q0,.269.023.536a6.1,6.1,0,0,0,1.3.149h1.244c.146,0,.266-1.183.266-1.332v-1.244C162.741,398.2,161.556,398.08,161.409,398.08Z" transform="translate(-156.702 -395.948)"/><path class="ep" d="M161.3,398h-1.237c-.149,0-.273,1.179-.273,1.33v.816a5.382,5.382,0,0,0,.029.543,5.9,5.9,0,0,0,1.3.153h1.239c.151,0,.273-1.179.273-1.33v-1.239C162.627,398.122,161.449,398,161.3,398Z" transform="translate(-156.617 -395.886)"/><path class="eq" d="M161.164,397.92h-1.235c-.155,0-.279,1.172-.279,1.325v.816a4.756,4.756,0,0,0,.029.543,5.739,5.739,0,0,0,1.3.158h1.23c.153,0,.279-1.172.279-1.327V398.2C162.492,398.044,161.32,397.92,161.164,397.92Z" transform="translate(-156.509 -395.824)"/><path class="er" d="M161.039,397.83h-1.23c-.16,0-.288,1.167-.288,1.325v.813a5.361,5.361,0,0,0,.029.543,5.585,5.585,0,0,0,1.3.16h1.23c.158,0,.286-1.165.286-1.323v-1.23C162.362,397.958,161.206,397.83,161.039,397.83Z" transform="translate(-156.408 -395.754)"/><path class="es" d="M160.919,397.75h-1.226c-.162,0-.293,1.161-.293,1.323v.813a5.325,5.325,0,0,0,.029.541,5.434,5.434,0,0,0,1.293.164h1.226c.162,0,.293-1.161.293-1.323v-1.226C162.239,397.881,161.081,397.75,160.919,397.75Z" transform="translate(-156.315 -395.693)"/><path class="et" d="M160.771,397.67H159.55c-.167,0-.3,1.154-.3,1.318v.814a4.748,4.748,0,0,0,.029.541,5.277,5.277,0,0,0,1.289.169h1.221c.167,0,.3-1.154.3-1.321V397.97C162.1,397.805,160.945,397.67,160.771,397.67Z" transform="translate(-156.199 -395.631)"/><path class="eu" d="M160.676,397.59h-1.217c-.171,0-.309,1.147-.309,1.316v.8a4.708,4.708,0,0,0,.032.541,5.116,5.116,0,0,0,1.287.174h1.217c.169,0,.306-1.149.306-1.318v-1.2C161.992,397.727,160.845,397.59,160.676,397.59Z" transform="translate(-156.121 -395.569)"/><path class="ev" d="M160.556,397.5h-1.212c-.174,0-.313,1.143-.313,1.316v.809a4.718,4.718,0,0,0,.032.541,4.98,4.98,0,0,0,1.282.176h1.212c.174,0,.315-1.14.315-1.314v-1.212C161.872,397.642,160.729,397.5,160.556,397.5Z" transform="translate(-156.028 -395.499)"/><path class="ew" d="M160.43,397.42h-1.208c-.178,0-.322,1.127-.322,1.312v.811a4.242,4.242,0,0,0,.034.539,4.833,4.833,0,0,0,1.28.18h1.206c.178,0,.322-1.127.322-1.314v-1.206C161.742,397.564,160.608,397.42,160.43,397.42Z" transform="translate(-155.928 -395.437)"/><path class="ex" d="M160.31,397.34h-1.2c-.183,0-.329,1.127-.329,1.309v.809a4.212,4.212,0,0,0,.034.539,4.707,4.707,0,0,0,1.275.185h1.2c.18,0,.329-1.127.329-1.312v-1.2C161.622,397.489,160.493,397.34,160.31,397.34Z" transform="translate(-155.835 -395.375)"/><path class="ey" d="M160.185,397.25h-1.2c-.185,0-.336,1.127-.336,1.309v.807a4.213,4.213,0,0,0,.036.539,4.591,4.591,0,0,0,1.273.187h1.2c.187,0,.336-1.127.336-1.307v-1.2C161.492,397.4,160.369,397.25,160.185,397.25Z" transform="translate(-155.734 -395.305)"/><path class="ez" d="M160.067,397.17h-1.194c-.189,0-.343,1.115-.343,1.3v.807a4.183,4.183,0,0,0,.034.539,4.437,4.437,0,0,0,1.271.192h1.194c.189,0,.343-1.115.343-1.3v-1.194C161.372,397.323,160.256,397.17,160.067,397.17Z" transform="translate(-155.641 -395.243)"/><path class="fa" d="M159.97,397.09h-1.179c-.194,0-.352,1.109-.352,1.3v.807a4.2,4.2,0,0,0,.036.536,4.369,4.369,0,0,0,1.269.2h1.188c.194,0,.349-1.111.349-1.3v-1.188C161.27,397.246,160.164,397.09,159.97,397.09Z" transform="translate(-155.571 -395.181)"/><path class="fb" d="M159.821,397h-1.185c-.2,0-.356,1.1-.356,1.3v.8a4.179,4.179,0,0,0,.036.536,4.284,4.284,0,0,0,1.264.2h1.185c.2,0,.356-1.1.356-1.3v-1.183C161.122,397.16,160.02,397,159.821,397Z" transform="translate(-155.447 -395.112)"/><path class="fb" d="M159.7,396.92h-1.179c-.2,0-.363,1.1-.363,1.3v.8a3.807,3.807,0,0,0,.036.536,4.2,4.2,0,0,0,1.262.2h1.179c.2,0,.365-1.1.365-1.3v-1.179C161,397.082,159.9,396.92,159.7,396.92Z" transform="translate(-155.354 -395.05)"/><path class="fc" d="M159.576,396.84H158.4c-.205,0-.372,1.091-.372,1.3v.8a3.771,3.771,0,0,0,.038.534,4.06,4.06,0,0,0,1.257.207H160.5c.2,0,.37-1.091.37-1.3V397.21C160.872,397.007,159.781,396.84,159.576,396.84Z" transform="translate(-155.254 -394.988)"/><path class="fd" d="M159.458,396.76h-1.172c-.207,0-.376,1.084-.376,1.293v.8a3.776,3.776,0,0,0,.038.534,3.968,3.968,0,0,0,1.255.212h1.17c.21,0,.379-1.086.379-1.3v-1.17C160.752,396.929,159.665,396.76,159.458,396.76Z" transform="translate(-155.161 -394.926)"/><path class="fe" d="M159.33,396.67h-1.165c-.212,0-.385,1.079-.385,1.291v.811a3.462,3.462,0,0,0,.041.534,3.866,3.866,0,0,0,1.251.214h1.165c.214,0,.385-1.079.385-1.291v-1.165C160.622,396.844,159.542,396.67,159.33,396.67Z" transform="translate(-155.06 -394.856)"/><path class="ff" d="M159.213,396.59h-1.161c-.225,0-.392,1.073-.392,1.289v.8a3.441,3.441,0,0,0,.041.534,3.778,3.778,0,0,0,1.248.225h1.161c.225,0,.392-1.073.392-1.289v-1.161C160.5,396.766,159.429,396.59,159.213,396.59Z" transform="translate(-154.967 -394.794)"/><path class="fg" d="M159.085,396.51h-1.156c-.225,0-.4,1.066-.4,1.287v.8a3.737,3.737,0,0,0,.041.532,3.716,3.716,0,0,0,1.246.225h1.156c.225,0,.4-1.068.4-1.287v-1.156C160.372,396.688,159.306,396.51,159.085,396.51Z" transform="translate(-154.866 -394.732)"/><path class="fh" d="M158.967,396.42h-1.152c-.225,0-.406,1.061-.406,1.284v.8a3.742,3.742,0,0,0,.041.532,3.639,3.639,0,0,0,1.244.225h1.152c.225,0,.406-1.059.406-1.284v-1.152C160.247,396.6,159.19,396.42,158.967,396.42Z" transform="translate(-154.773 -394.662)"/><path class="fi" d="M158.842,396.34h-1.147c-.225,0-.415,1.055-.415,1.282v.8a3.437,3.437,0,0,0,.043.532c.068.135,1.077.225,1.239.225h1.147c.225,0,.412-1.055.412-1.282v-1.147C160.122,396.525,159.069,396.34,158.842,396.34Z" transform="translate(-154.673 -394.6)"/><path class="fj" d="M158.706,396.26h-1.147c-.225,0-.419,1.048-.419,1.28v.8a3.413,3.413,0,0,0,.043.532c.068.137,1.07.225,1.237.225h1.143c.225,0,.419-1.048.419-1.28V396.67C159.986,396.447,158.938,396.26,158.706,396.26Z" transform="translate(-154.564 -394.538)"/><path class="fk" d="M158.663,396.17h-1.127c-.237,0-.426,1.043-.426,1.278v.8a3.405,3.405,0,0,0,.043.53c.07.14,1.066.225,1.233.225h1.138c.237,0,.428-1.041.428-1.275v-1.138C159.936,396.357,158.888,396.17,158.663,396.17Z" transform="translate(-154.541 -394.469)"/><path class="fl" d="M158.492,396.09h-1.127c-.241,0-.435,1.037-.435,1.275v.8a3.154,3.154,0,0,0,.045.53c.07.142,1.059.241,1.23.241h1.127c.239,0,.433-1.034.433-1.275v-1.127C159.767,396.3,158.733,396.09,158.492,396.09Z" transform="translate(-154.402 -394.407)"/><path class="fm" d="M158.327,396H157.2c-.243,0-.451,1.03-.451,1.273v.793a3.128,3.128,0,0,0,.045.53c.072.144,1.052.245,1.226.245h1.127c.243,0,.451-1.03.451-1.273v-1.127C159.6,396.2,158.571,396,158.327,396Z" transform="translate(-154.262 -394.337)"/><path class="fm" d="M158.217,395.93h-1.127c-.248,0-.451,1.023-.451,1.269v.793a3.084,3.084,0,0,0,.047.527c.072.149,1.048.252,1.224.252h1.127c.246,0,.451-1.023.451-1.271v-1.127C159.486,396.13,158.463,395.93,158.217,395.93Z" transform="translate(-154.177 -394.283)"/><path class="fn" d="M158.1,395.84h-1.127c-.252,0-.451,1.019-.451,1.269v.8a3.057,3.057,0,0,0,.045.525c.074.151,1.043.255,1.221.255h1.127c.25,0,.451-1.016.451-1.266v-1.127C159.366,396.045,158.35,395.84,158.1,395.84Z" transform="translate(-154.084 -394.213)"/><path class="fo" d="M157.987,395.76h-1.115c-.255,0-.462,1.01-.462,1.266v.791a3.075,3.075,0,0,0,.047.525c.077.153,1.037.259,1.219.259h1.12c.257,0,.462-1.01.462-1.266v-1.113C159.247,395.967,158.242,395.76,157.987,395.76Z" transform="translate(-153.999 -394.151)"/><path class="fp" d="M157.867,395.68h-1.109c-.259,0-.469,1-.469,1.262v.791a3.052,3.052,0,0,0,.047.525c.077.156,1.032.264,1.215.264h1.111c.259,0,.469-1.005.469-1.264v-1.109C159.132,395.89,158.127,395.68,157.867,395.68Z" transform="translate(-153.906 -394.089)"/><path class="fq" d="M157.742,395.59h-1.1c-.264,0-.478,1-.478,1.262v.789a2.842,2.842,0,0,0,.05.525c.077.158,1.025.266,1.212.266h1.1c.264,0,.475-1,.475-1.26v-1.1C159,395.8,158.006,395.59,157.742,395.59Z" transform="translate(-153.805 -394.019)"/><path class="fr" d="M157.624,395.51h-1.1c-.266,0-.482.992-.482,1.26v.789a2.819,2.819,0,0,0,.05.523c.079.16,1.019.27,1.21.27h1.1c.266,0,.482-.992.482-1.257v-1.1C158.882,395.726,157.89,395.51,157.624,395.51Z" transform="translate(-153.712 -393.957)"/><path class="fs" d="M157.554,395.43h-1.1c-.27,0-.489.985-.489,1.255v.789a2.836,2.836,0,0,0,.05.523c.079.162,1.012.275,1.206.275h1.1c.27,0,.491-.987.491-1.257v-1.1C158.8,395.649,157.813,395.43,157.554,395.43Z" transform="translate(-153.658 -393.895)"/><path class="ft" d="M157.379,395.35h-1.091c-.275,0-.5.978-.5,1.253v.786a2.64,2.64,0,0,0,.052.523c.081.165,1.007.279,1.2.279h1.091c.273,0,.5-.98.5-1.255v-1.091C158.632,395.571,157.651,395.35,157.379,395.35Z" transform="translate(-153.518 -393.833)"/><path class="fu" d="M157.259,395.26h-1.086c-.277,0-.5.974-.5,1.253v.787a2.815,2.815,0,0,0,.05.521c.083.167,1,.282,1.2.282H158c.279,0,.5-.973.5-1.251v-1.086C158.512,395.485,157.547,395.26,157.259,395.26Z" transform="translate(-153.426 -393.764)"/><path class="fv" d="M157.133,395.18h-1.082c-.282,0-.512.967-.512,1.248v.786a2.791,2.791,0,0,0,.052.521c.083.169,1,.286,1.2.286h1.082c.282,0,.509-.967.509-1.248v-1.082C158.382,395.408,157.415,395.18,157.133,395.18Z" transform="translate(-153.325 -393.702)"/><path class="fw" d="M157.015,395.1h-1.077c-.286,0-.518.96-.518,1.246v.784a2.613,2.613,0,0,0,.052.521c.086.171.992.291,1.194.291h1.077c.286,0,.518-.962.518-1.248v-1.077C158.255,395.33,157.3,395.1,157.015,395.1Z" transform="translate(-153.232 -393.64)"/><path class="fx" d="M156.888,395h-1.073c-.288,0-.525.955-.525,1.246v.782a2.615,2.615,0,0,0,.054.521c.086.174.985.293,1.192.293h1.073c.288,0,.523-.953.523-1.244v-1.073C158.132,395.239,157.178,395,156.888,395Z" transform="translate(-153.131 -393.562)"/><path class="fy" d="M156.77,394.93H155.7c-.293,0-.532.949-.532,1.242v.784a2.593,2.593,0,0,0,.054.518c.086.176.978.3,1.188.3h1.068c.293,0,.532-.949.532-1.242v-1.068C158.012,395.171,157.063,394.93,156.77,394.93Z" transform="translate(-153.038 -393.508)"/><path class="fz" d="M156.642,394.85h-1.061c-.3,0-.541.942-.541,1.239v.782a2.437,2.437,0,0,0,.056.518c.088.178.971.3,1.185.3h1.061c.3,0,.539-.942.539-1.239v-1.064C157.882,395.091,156.94,394.85,156.642,394.85Z" transform="translate(-152.937 -393.446)"/><path class="ga" d="M156.484,394.76h-1.059c-.3,0-.545.937-.545,1.239v.78a2.436,2.436,0,0,0,.056.518c.088.18.967.3,1.181.3h1.059c.3,0,.545-.935.545-1.237v-1.057C157.731,395.006,156.8,394.76,156.484,394.76Z" transform="translate(-152.814 -393.376)"/><path class="gb" d="M156.407,394.68h-1.055c-.306,0-.552.931-.552,1.235v.78a2.437,2.437,0,0,0,.056.518c.09.182.96.309,1.179.309H157.1c.306,0,.554-.928.554-1.235v-1.055C157.642,394.928,156.711,394.68,156.407,394.68Z" transform="translate(-152.752 -393.314)"/><path class="gc" d="M156.279,394.6h-1.05c-.309,0-.559.924-.559,1.233v.78a2.414,2.414,0,0,0,.056.516c.092.185.955.313,1.176.313h1.05c.309,0,.559-.924.559-1.233v-1.05C157.512,394.85,156.588,394.6,156.279,394.6Z" transform="translate(-152.651 -393.252)"/><path class="gd" d="M156.161,394.52h-1.046c-.313,0-.566.917-.566,1.23v.777a2.415,2.415,0,0,0,.056.516c.092.187.951.318,1.174.318h1.043c.313,0,.568-.919.568-1.23v-1.052C157.392,394.772,156.474,394.52,156.161,394.52Z" transform="translate(-152.558 -393.19)"/><path class="ge" d="M156.057,394.43h-1.032c-.318,0-.575.913-.575,1.228v.777a2.414,2.414,0,0,0,.059.516c.095.189.944.32,1.17.32h1.041c.315,0,.572-.9.572-1.228v-1.034C157.278,394.687,156.377,394.43,156.057,394.43Z" transform="translate(-152.48 -393.121)"/><path class="gf" d="M155.916,394.35h-1.037c-.32,0-.579.9-.579,1.226v.775a2.253,2.253,0,0,0,.059.516c.095.192.937.324,1.167.324h1.034c.32,0,.581-.9.581-1.226v-1.034C157.142,394.609,156.236,394.35,155.916,394.35Z" transform="translate(-152.364 -393.059)"/><path class="gg" d="M155.788,394.27h-1.03c-.324,0-.588.9-.588,1.224v.775a2.253,2.253,0,0,0,.061.514c.095.194.931.329,1.163.329h1.032c.324,0,.586-.9.586-1.224v-1.032C157.012,394.531,156.115,394.27,155.788,394.27Z" transform="translate(-152.264 -392.997)"/><path class="gh" d="M155.67,394.18h-1.025c-.329,0-.595.9-.595,1.221v.766a2.254,2.254,0,0,0,.061.514c.1.2.926.331,1.161.331h1.021c.329,0,.595-.9.595-1.219v-1.028C156.892,394.448,156,394.18,155.67,394.18Z" transform="translate(-152.171 -392.927)"/><path class="gi" d="M155.545,394.1h-1.023c-.331,0-.6.886-.6,1.219v.773a2.139,2.139,0,0,0,.063.514c.1.2.919.336,1.156.336h1.021c.333,0,.6-.886.6-1.219V394.7C156.762,394.37,155.876,394.1,155.545,394.1Z" transform="translate(-152.07 -392.865)"/><path class="gj" d="M155.423,394h-1.014c-.336,0-.608.879-.608,1.215v.773a2.126,2.126,0,0,0,.063.514c.1.2.9.34,1.154.34h1.016c.336,0,.608-.881.608-1.217v-1.016C156.642,394.277,155.761,394,155.423,394Z" transform="translate(-151.977 -392.788)"/><path class="gk" d="M155.307,393.93H154.3c-.34,0-.615.874-.615,1.215v.773a2.238,2.238,0,0,0,.072.507c.1.2.9.343,1.152.343h1.012c.34,0,.617-.872.617-1.212v-1.012C156.522,394.207,155.647,393.93,155.307,393.93Z" transform="translate(-151.884 -392.733)"/><path class="gl" d="M155.179,393.85h-1.007c-.343,0-.622.868-.622,1.212v.771a2.108,2.108,0,0,0,.063.511c.1.205.9.347,1.149.347h1.007c.343,0,.622-.868.622-1.21v-1.01C156.392,394.129,155.524,393.85,155.179,393.85Z" transform="translate(-151.783 -392.671)"/><path class="gm" d="M155.062,393.77h-1c-.347,0-.629.861-.629,1.208v.771a2.12,2.12,0,0,0,.063.512c.1.207.9.352,1.145.352h1c.349,0,.631-.861.631-1.21v-1C156.263,394.047,155.409,393.77,155.062,393.77Z" transform="translate(-151.69 -392.609)"/><path class="gn" d="M154.936,393.69h-1c-.352,0-.638.854-.638,1.206v.771a2.1,2.1,0,0,0,.065.509c.1.21.89.356,1.142.356h1c.352,0,.635-.856.635-1.208v-1C156.142,393.985,155.288,393.69,154.936,393.69Z" transform="translate(-151.59 -392.547)"/><path class="go" d="M154.793,393.6h-1c-.354,0-.642.85-.642,1.206v.768a1.983,1.983,0,0,0,.065.509c.1.212.886.358,1.138.358h.994c.356,0,.645-.847.645-1.2v-.994C156,393.888,155.144,393.6,154.793,393.6Z" transform="translate(-151.473 -392.478)"/><path class="gp" d="M154.691,393.52H153.7c-.358,0-.651.843-.651,1.2v.768a1.983,1.983,0,0,0,.068.509c.106.225.879.363,1.127.363h.989c.358,0,.649-.843.649-1.2v-.989C155.892,393.811,155.049,393.52,154.691,393.52Z" transform="translate(-151.396 -392.416)"/><path class="gq" d="M154.571,393.44h-.983c-.363,0-.658.836-.658,1.2v.766a1.955,1.955,0,0,0,.068.507c.106.225.872.37,1.127.37h.985c.363,0,.658-.838.658-1.2V394.1C155.772,393.733,154.936,393.44,154.571,393.44Z" transform="translate(-151.303 -392.354)"/><path class="gr" d="M154.445,393.35h-.98c-.367,0-.665.831-.665,1.2v.766a1.858,1.858,0,0,0,.07.505c.108.225.868.372,1.127.372h.98c.365,0,.663-.829.663-1.2v-.98C155.642,393.647,154.812,393.35,154.445,393.35Z" transform="translate(-151.202 -392.284)"/><path class="gs" d="M154.322,393.27h-.976c-.372,0-.676.825-.676,1.194v.773a1.936,1.936,0,0,0,.068.5c.11.225.863.376,1.127.376h.976c.372,0,.676-.825.676-1.194v-.976C155.514,393.572,154.689,393.27,154.322,393.27Z" transform="translate(-151.102 -392.222)"/><path class="gt" d="M154.215,393.19h-.969c-.376,0-.676.818-.676,1.192v.764a1.937,1.937,0,0,0,.068.5c.11.225.856.381,1.127.381h.969c.376,0,.676-.818.676-1.192v-.971C155.409,393.494,154.591,393.19,154.215,393.19Z" transform="translate(-151.024 -392.16)"/><path class="gu" d="M154.113,393.11h-.967c-.379,0-.676.811-.676,1.19v.762a1.833,1.833,0,0,0,.07.5c.113.225.85.385,1.127.385h.951c.379,0,.676-.813.676-1.192V393.8C155.294,393.416,154.491,393.11,154.113,393.11Z" transform="translate(-150.947 -392.098)"/><path class="gv" d="M153.962,393H153c-.383,0-.692.807-.692,1.188v.764a1.841,1.841,0,0,0,.07.5c.113.225.845.388,1.127.388h.96c.383,0,.694-.8.694-1.188V393.7C155.152,393.315,154.345,393,153.962,393Z" transform="translate(-150.823 -392.013)"/><path class="gw" d="M153.836,392.94h-.955c-.388,0-.7.8-.7,1.185v.762a1.829,1.829,0,0,0,.072.5c.115.225.838.392,1.113.392h.958c.385,0,.7-.8.7-1.185v-.967C155.022,393.253,154.224,392.94,153.836,392.94Z" transform="translate(-150.722 -391.966)"/><path class="gx" d="M153.719,392.86h-.953c-.39,0-.705.793-.705,1.183v.759a1.738,1.738,0,0,0,.072.5c.115.225.832.4,1.111.4h.951c.39,0,.708-.793.708-1.183v-.951C154.9,393.176,154.108,392.86,153.719,392.86Z" transform="translate(-150.629 -391.905)"/><path class="gy" d="M153.591,392.77h-.946c-.394,0-.714.789-.714,1.181v.759a1.736,1.736,0,0,0,.074.5c.115.237.827.4,1.107.4h.949c.394,0,.712-.786.712-1.181v-.946C154.772,393.09,153.985,392.77,153.591,392.77Z" transform="translate(-150.528 -391.835)"/><path class="gz" d="M153.465,392.69h-.944c-.4,0-.721.78-.721,1.179v.759a1.733,1.733,0,0,0,.074.5c.117.239.82.4,1.1.4h.942c.4,0,.721-.78.721-1.179v-.942C154.644,393.012,153.873,392.69,153.465,392.69Z" transform="translate(-150.428 -391.773)"/><path class="ha" d="M153.345,392.61h-.937c-.4,0-.728.773-.728,1.176v.757a1.732,1.732,0,0,0,.074.5c.119.241.816.408,1.1.408h.94c.4,0,.726-.775.726-1.176v-.937C154.522,392.934,153.749,392.61,153.345,392.61Z" transform="translate(-150.335 -391.711)"/><path class="hb" d="M153.268,392.52h-.933c-.406,0-.735.768-.735,1.174v.757a1.721,1.721,0,0,0,.074.5c.12.244.809.41,1.1.41h.933c.406,0,.735-.766.735-1.172v-.935C154.433,392.854,153.664,392.52,153.268,392.52Z" transform="translate(-150.273 -391.641)"/><path class="hc" d="M153.11,392.44h-.928c-.41,0-.741.762-.741,1.172v.757a1.722,1.722,0,0,0,.074.5c.122.246.8.415,1.1.415h.928c.41,0,.744-.762.744-1.172v-.928C154.282,392.771,153.518,392.44,153.11,392.44Z" transform="translate(-150.149 -391.579)"/><path class="hd" d="M152.982,392.36h-.924c-.412,0-.748.755-.748,1.17v.755a1.645,1.645,0,0,0,.077.5c.122.248.8.419,1.093.419h.924c.412,0,.748-.757.748-1.17v-.924C154.152,392.7,153.4,392.36,152.982,392.36Z" transform="translate(-150.048 -391.517)"/><path class="he" d="M152.864,392.28h-.919c-.417,0-.755.748-.755,1.165v.755a1.646,1.646,0,0,0,.077.5c.124.25.791.424,1.088.424h.919c.419,0,.757-.75.757-1.167v-.919C154.032,392.618,153.281,392.28,152.864,392.28Z" transform="translate(-149.955 -391.455)"/><path class="hf" d="M152.737,392.19h-.913c-.421,0-.764.744-.764,1.165v.753a1.634,1.634,0,0,0,.079.5c.124.252.786.426,1.086.426h.915c.421,0,.762-.744.762-1.165v-.913C153.9,392.533,153.158,392.19,152.737,392.19Z" transform="translate(-149.854 -391.385)"/><path class="hg" d="M152.65,392.11h-.9c-.424,0-.768.737-.768,1.163v.753a1.556,1.556,0,0,0,.079.5c.124.255.78.43,1.084.43h.9c.426,0,.771-.737.771-1.163v-.9C153.813,392.455,153.076,392.11,152.65,392.11Z" transform="translate(-149.792 -391.323)"/><path class="hh" d="M152.509,392h-.9c-.428,0-.777.73-.777,1.158v.753a1.578,1.578,0,0,0,.081.5c.126.257.773.435,1.079.435h.9c.428,0,.775-.732.775-1.161v-.9C153.667,392.354,152.937,392,152.509,392Z" transform="translate(-149.676 -391.238)"/><path class="hi" d="M152.366,391.94h-.9c-.433,0-.784.726-.784,1.158v.75a1.62,1.62,0,0,0,.079.5c.128.259.768.437,1.079.437h.9c.433,0,.784-.723.784-1.156v-.9C153.524,392.292,152.8,391.94,152.366,391.94Z" transform="translate(-149.56 -391.192)"/><path class="hj" d="M152.232,391.86h-.9c-.435,0-.791.719-.791,1.156v.748a1.554,1.554,0,0,0,.081.5c.128.261.764.451,1.075.451h.9c.435,0,.789-.719.789-1.156v-.9C153.386,392.214,152.672,391.86,152.232,391.86Z" transform="translate(-149.452 -391.13)"/><path class="hk" d="M152.089,391.78h-.9c-.451,0-.8.712-.8,1.151v.75a1.542,1.542,0,0,0,.081.494c.131.264.757.451,1.073.451h.89c.451,0,.8-.712.8-1.154v-.89C153.243,392.136,152.531,391.78,152.089,391.78Z" transform="translate(-149.335 -391.068)"/><path class="hl" d="M152.01,391.69h-.886c-.451,0-.8.708-.8,1.152v.748a1.554,1.554,0,0,0,.081.494c.131.266.75.451,1.068.451h.888c.451,0,.8-.705.8-1.149V392.5C153.162,392.051,152.454,391.69,152.01,391.69Z" transform="translate(-149.281 -390.998)"/><path class="hm" d="M151.885,391.61H151c-.451,0-.811.7-.811,1.149v.741a1.483,1.483,0,0,0,.083.494c.133.268.746.451,1.066.451h.881c.451,0,.811-.7.811-1.147v-.883C153.032,391.973,152.333,391.61,151.885,391.61Z" transform="translate(-149.18 -390.936)"/><path class="hn" d="M151.765,391.53h-.877c-.451,0-.818.694-.818,1.145v.746a1.483,1.483,0,0,0,.083.493c.133.27.739.451,1.061.451h.868c.451,0,.82-.694.82-1.147v-.877C152.912,391.9,152.218,391.53,151.765,391.53Z" transform="translate(-149.087 -390.874)"/><path class="ho" d="M151.639,391.45h-.872c-.451,0-.827.687-.827,1.143v.746a1.472,1.472,0,0,0,.086.491,1.418,1.418,0,0,0,1.059.462h.872c.451,0,.825-.687.825-1.145v-.872C152.782,391.82,152.094,391.45,151.639,391.45Z" transform="translate(-148.987 -390.812)"/><path class="hp" d="M151.519,391.36h-.868c-.451,0-.832.676-.832,1.142v.744a.893.893,0,0,0,1.14.955h.868c.451,0,.834-.676.834-1.14v-.868C152.662,391.73,151.981,391.36,151.519,391.36Z" transform="translate(-148.894 -390.743)"/><path class="hq" d="M151.394,391.28h-.863c-.464,0-.841.676-.841,1.138v.744a1.472,1.472,0,0,0,.086.491,1.4,1.4,0,0,0,1.055.469h.863c.464,0,.838-.676.838-1.138v-.865C152.532,391.668,151.858,391.28,151.394,391.28Z" transform="translate(-148.793 -390.681)"/><path class="hr" d="M151.276,391.2h-.859c-.469,0-.847.676-.847,1.127v.741a1.46,1.46,0,0,0,.086.491,1.38,1.38,0,0,0,1.05.473h.859c.469,0,.847-.676.847-1.138v-.838C152.412,391.579,151.742,391.2,151.276,391.2Z" transform="translate(-148.7 -390.619)"/><path class="hs" d="M151.128,391.11h-.854c-.471,0-.854.663-.854,1.127v.741a1.4,1.4,0,0,0,.088.489,1.366,1.366,0,0,0,1.048.475h.854c.471,0,.852-.663.852-1.127v-.852C152.266,391.493,151.6,391.11,151.128,391.11Z" transform="translate(-148.584 -390.549)"/><path class="ht" d="M151.03,391h-.85c-.475,0-.861.656-.861,1.127v.741a1.4,1.4,0,0,0,.088.489,1.352,1.352,0,0,0,1.043.48h.85c.475,0,.861-.656.861-1.127v-.85C152.162,391.392,151.5,391,151.03,391Z" transform="translate(-148.506 -390.464)"/><path class="hu" d="M150.91,391h-.843c-.48,0-.868.649-.868,1.127v.739a1.4,1.4,0,0,0,.088.489,1.34,1.34,0,0,0,1.041.484h.854c.478,0,.868-.651.868-1.127v-.856C152.042,391.376,151.39,391,150.91,391Z" transform="translate(-148.414 -390.464)"/><path class="hv" d="M150.824,390.87h-.829c-.482,0-.874.642-.874,1.127v.739a.92.92,0,0,0,1.127.976h.841c.482,0,.874-.645.874-1.127v-.838C151.95,391.26,151.306,390.87,150.824,390.87Z" transform="translate(-148.352 -390.363)"/><path class="hw" d="M150.667,390.78h-.836c-.487,0-.881.638-.881,1.127v.739a1.322,1.322,0,0,0,.09.484,1.306,1.306,0,0,0,1.034.493h.836c.487,0,.881-.638.881-1.127v-.836C151.792,391.174,151.154,390.78,150.667,390.78Z" transform="translate(-148.22 -390.293)"/><path class="hx" d="M150.5,390.7h-.829c-.491,0-.9.631-.9,1.127v.744a1.37,1.37,0,0,0,.09.484,1.292,1.292,0,0,0,1.032.5h.832c.491,0,.888-.631.888-1.127v-.832C151.623,391.1,150.992,390.7,150.5,390.7Z" transform="translate(-148.08 -390.231)"/><path class="hy" d="M150.4,390.62h-.827c-.494,0-.9.624-.9,1.127v.735a1.314,1.314,0,0,0,.09.484,1.287,1.287,0,0,0,1.03.5h.825c.5,0,.9-.627.9-1.127v-.827C151.518,391.021,150.892,390.62,150.4,390.62Z" transform="translate(-148.003 -390.169)"/><path class="hz" d="M150.3,390.53h-.82c-.5,0-.9.62-.9,1.127v.737a1.312,1.312,0,0,0,.092.482,1.281,1.281,0,0,0,1.025.5h.822c.5,0,.9-.617.9-1.127v-.82C151.419,390.936,150.8,390.53,150.3,390.53Z" transform="translate(-147.933 -390.1)"/><path class="ia" d="M150.207,390.45h-.816c-.5,0-.9.613-.9,1.116v.735a1.3,1.3,0,0,0,.092.482,1.264,1.264,0,0,0,1.023.509h.8c.5,0,.9-.613.9-1.116v-.816C151.323,390.858,150.71,390.45,150.207,390.45Z" transform="translate(-147.864 -390.038)"/><path class="ib" d="M150.051,390.37h-.813c-.5,0-.917.606-.917,1.113v.732a1.268,1.268,0,0,0,.095.482,1.25,1.25,0,0,0,1.019.514h.814c.5,0,.915-.606.915-1.113v-.814C151.162,390.78,150.555,390.37,150.051,390.37Z" transform="translate(-147.732 -389.976)"/><path class="ic" d="M149.931,390.28h-.807a1.1,1.1,0,0,0-.924,1.111v.732a1.259,1.259,0,0,0,.095.482,1.238,1.238,0,0,0,1.016.516h.807a1.1,1.1,0,0,0,.924-1.109V391.2A1.1,1.1,0,0,0,149.931,390.28Z" transform="translate(-147.639 -389.906)"/><path class="id" d="M149.813,390.2h-.8a1.1,1.1,0,0,0-.928,1.109v.732a1.257,1.257,0,0,0,.095.48,1.227,1.227,0,0,0,1.012.521h.8a1.1,1.1,0,0,0,.931-1.109v-.8A1.1,1.1,0,0,0,149.813,390.2Z" transform="translate(-147.546 -389.844)"/><path class="ie" d="M149.685,390.12h-.8a1.1,1.1,0,0,0-.937,1.106v.73a.96.96,0,0,0,1.106,1.005h.8a1.1,1.1,0,0,0,.937-1.106v-.8A1.091,1.091,0,0,0,149.685,390.12Z" transform="translate(-147.445 -389.782)"/><path class="if" d="M149.552,390h-.8a1.091,1.091,0,0,0-.944,1.1v.73a1.257,1.257,0,0,0,.095.48,1.212,1.212,0,0,0,1.007.53h.8a1.1,1.1,0,0,0,.944-1.1v-.793A1.092,1.092,0,0,0,149.552,390Z" transform="translate(-147.337 -389.689)"/><path class="ig" d="M149.442,390h-.791a1.092,1.092,0,0,0-.951,1.1v.728a1.251,1.251,0,0,0,.1.48,1.2,1.2,0,0,0,1.005.532h.789a1.09,1.09,0,0,0,.951-1.1v-.791A1.081,1.081,0,0,0,149.442,390Z" transform="translate(-147.252 -389.689)"/><path class="ih" d="M149.317,389.87h-.784a1.088,1.088,0,0,0-.958,1.1v.732a.971.971,0,0,0,1.1,1.014h.784a1.09,1.09,0,0,0,.96-1.1v-.784A1.089,1.089,0,0,0,149.317,389.87Z" transform="translate(-147.154 -389.588)"/><path class="ii" d="M149.2,389.79h-.78a1.086,1.086,0,0,0-.967,1.1v.728a1.2,1.2,0,0,0,.1.478,1.181,1.181,0,0,0,1,.541h.78a1.085,1.085,0,0,0,.964-1.1v-.78A1.084,1.084,0,0,0,149.2,389.79Z" transform="translate(-147.058 -389.526)"/><path class="ij" d="M149.076,389.7H148.3a1.083,1.083,0,0,0-.971,1.1v.726a1.2,1.2,0,0,0,.1.478,1.167,1.167,0,0,0,.994.543h.775a1.083,1.083,0,0,0,.973-1.093v-.78A1.085,1.085,0,0,0,149.076,389.7Z" transform="translate(-146.965 -389.457)"/><path class="ik" d="M148.978,389.62h-.771a1.081,1.081,0,0,0-.98,1.091v.726a.992.992,0,0,0,1.093,1.025h.771a1.08,1.08,0,0,0,.978-1.091v-.764A1.092,1.092,0,0,0,148.978,389.62Z" transform="translate(-146.885 -389.395)"/><path class="il" d="M148.831,389.54h-.766a1.078,1.078,0,0,0-.987,1.088v.726a1,1,0,0,0,1.088,1.028h.766a1.081,1.081,0,0,0,.987-1.091v-.764A1.08,1.08,0,0,0,148.831,389.54Z" transform="translate(-146.769 -389.333)"/><path class="im" d="M148.713,389.45h-.762a1.077,1.077,0,0,0-.992,1.088v.723a1.154,1.154,0,0,0,.1.475,1.127,1.127,0,0,0,.985.554h.762a1.077,1.077,0,0,0,.994-1.086v-.762A1.079,1.079,0,0,0,148.713,389.45Z" transform="translate(-146.678 -389.263)"/><path class="in" d="M148.588,389.37h-.757a1.075,1.075,0,0,0-1,1.084v.723a1.154,1.154,0,0,0,.1.475,1.127,1.127,0,0,0,.983.559h.757a1.075,1.075,0,0,0,1-1.084v-.757A1.075,1.075,0,0,0,148.588,389.37Z" transform="translate(-146.577 -389.201)"/><path class="io" d="M148.468,389.29h-.75a1.073,1.073,0,0,0-1.007,1.082v.723a1.153,1.153,0,0,0,.1.473,1.127,1.127,0,0,0,.98.563h.753a1.073,1.073,0,0,0,1.007-1.082V390.3A1.075,1.075,0,0,0,148.468,389.29Z" transform="translate(-146.484 -389.139)"/><path class="ip" d="M148.342,389.21h-.748a1.073,1.073,0,0,0-1.014,1.079v.721a1.145,1.145,0,0,0,.1.473,1.127,1.127,0,0,0,.976.568h.748a1.073,1.073,0,0,0,1.014-1.082v-.746A1.07,1.07,0,0,0,148.342,389.21Z" transform="translate(-146.384 -389.077)"/><path class="iq" d="M148.231,389.12h-.741a1.07,1.07,0,0,0-1.021,1.077v.721a1.021,1.021,0,0,0,1.077,1.043h.744a1.07,1.07,0,0,0,1.021-1.077v-.741A1.07,1.07,0,0,0,148.231,389.12Z" transform="translate(-146.298 -389.007)"/><path class="ir" d="M148.1,389h-.737a1.07,1.07,0,0,0-1.03,1.075v.728a1.032,1.032,0,0,0,1.075,1.048h.739a1.068,1.068,0,0,0,1.028-1.075v-.739A1.068,1.068,0,0,0,148.1,389Z" transform="translate(-146.19 -388.914)"/><path class="is" d="M147.979,389h-.735a1.068,1.068,0,0,0-1.034,1.073v.719a1.037,1.037,0,0,0,1.073,1.05h.732a1.07,1.07,0,0,0,1.037-1.073v-.735A1.066,1.066,0,0,0,147.979,389Z" transform="translate(-146.097 -388.914)"/><path class="it" d="M147.851,388.87h-.728a1.068,1.068,0,0,0-1.043,1.07v.719a1.071,1.071,0,0,0,.108.471,1.082,1.082,0,0,0,.962.581h.73a1.066,1.066,0,0,0,1.041-1.07v-.728A1.068,1.068,0,0,0,147.851,388.87Z" transform="translate(-145.997 -388.814)"/><path class="iu" d="M147.733,388.79h-.723a1.066,1.066,0,0,0-1.05,1.068v.717a1.05,1.05,0,0,0,1.068,1.057h.723a1.066,1.066,0,0,0,1.05-1.068v-.723A1.066,1.066,0,0,0,147.733,388.79Z" transform="translate(-145.904 -388.752)"/><path class="iv" d="M147.616,388.71h-.721a1.064,1.064,0,0,0-1.055,1.066v.714a1.093,1.093,0,0,0,.106.471,1.075,1.075,0,0,0,.96.59h.719a1.064,1.064,0,0,0,1.057-1.066v-.719a1.064,1.064,0,0,0-1.066-1.057Z" transform="translate(-145.811 -388.69)"/><rect class="c" width="2.842" height="2.842" rx="1.421"/></g><rect class="dc" width="2.842" height="2.842" transform="translate(7.126 8.759) rotate(180)"/><rect class="c" width="2.842" height="2.842" rx="1.421" transform="translate(2.842 5.897) rotate(180)"/><ellipse class="da" cx="1.422" cy="1.422" rx="1.422" ry="1.422" transform="translate(3.044 0.009)"/></g></svg>