<svg id="Group_1826" data-name="Group 1826" xmlns="http://www.w3.org/2000/svg" width="45.639" height="34.549" viewBox="0 0 45.639 34.549">
  <path id="Path_1482" data-name="Path 1482" d="M51.44,36.1h0L7.958,36A1.078,1.078,0,0,1,6.88,34.9V13.266a1.1,1.1,0,0,1,.313-.783,1.044,1.044,0,0,1,.765-.313l43.481.1a1.078,1.078,0,0,1,1.078,1.078V35.007a1.1,1.1,0,0,1-.313.783,1.131,1.131,0,0,1-.765.313Zm-42.4-2.278,41.325.1V14.449l-41.325-.1Z" transform="translate(-6.88 -12.17)" fill="#fff"/>
  <rect id="Rectangle_252" data-name="Rectangle 252" width="2.174" height="11.723" transform="translate(21.741 22.827)" fill="#fff"/>
  <rect id="Rectangle_253" data-name="Rectangle 253" width="24.037" height="2.174" transform="translate(14.731 7.38)" fill="#fff"/>
  <rect id="Rectangle_254" data-name="Rectangle 254" width="17.845" height="2.174" transform="translate(20.924 12.376)" fill="#fff"/>
  <path id="Path_1483" data-name="Path 1483" d="M14.138,23.67a2.209,2.209,0,0,1-4.418,0" transform="translate(-4.78 -3.653)" fill="#fff"/>
  <path id="Path_1484" data-name="Path 1484" d="M20.138,23.67a2.209,2.209,0,0,1-4.418,0" transform="translate(-0.345 -3.653)" fill="#fff"/>
  <path id="Path_1485" data-name="Path 1485" d="M26.1,23.67a2.209,2.209,0,0,1-4.418,0" transform="translate(4.061 -3.653)" fill="#fff"/>
  <path id="Path_1486" data-name="Path 1486" d="M32.058,23.67a2.209,2.209,0,1,1-4.418,0" transform="translate(8.467 -3.653)" fill="#fff"/>
  <circle id="Ellipse_8" data-name="Ellipse 8" cx="2.035" cy="2.035" r="2.035" transform="translate(5.218 4.766)" fill="#fff"/>
</svg>
