<svg id="Group_1824" data-name="Group 1824" xmlns="http://www.w3.org/2000/svg" width="37.207" height="34.549" viewBox="0 0 37.207 34.549">
  <path id="Path_1474" data-name="Path 1474" d="M6.658,40.549H38.549a2.665,2.665,0,0,0,2.658-2.658V8.658A2.665,2.665,0,0,0,38.549,6H6.658A2.665,2.665,0,0,0,4,8.658V37.892A2.665,2.665,0,0,0,6.658,40.549ZM38.549,39.22H6.658a1.333,1.333,0,0,1-1.329-1.329V15.966H39.878V37.892A1.333,1.333,0,0,1,38.549,39.22ZM6.658,7.329H38.549a1.333,1.333,0,0,1,1.329,1.329v5.98H5.329V8.658A1.333,1.333,0,0,1,6.658,7.329Z" transform="translate(-4 -6)" fill="#fff"/>
  <path id="Path_1475" data-name="Path 1475" d="M9.664,11.329H21.624a.664.664,0,0,0,0-1.329H9.664a.664.664,0,0,0,0,1.329Z" transform="translate(-5.678 -7.342)" fill="#fff"/>
  <path id="Path_1476" data-name="Path 1476" d="M9.664,16.329H21.624a.664.664,0,0,0,0-1.329H9.664a.664.664,0,1,0,0,1.329Z" transform="translate(-5.678 -9.02)" fill="#fff"/>
  <path id="Path_1477" data-name="Path 1477" d="M37.912,42H12.664a.664.664,0,1,0,0,1.329H37.912a.664.664,0,1,0,0-1.329Z" transform="translate(-6.685 -18.081)" fill="#fff"/>
  <path id="Path_1478" data-name="Path 1478" d="M37.912,50H12.664a.664.664,0,1,0,0,1.329H37.912a.664.664,0,1,0,0-1.329Z" transform="translate(-6.685 -20.766)" fill="#fff"/>
  <path id="Path_1479" data-name="Path 1479" d="M37.912,46H12.664a.664.664,0,1,0,0,1.329H37.912a.664.664,0,1,0,0-1.329Z" transform="translate(-6.685 -19.424)" fill="#fff"/>
  <path id="Path_1480" data-name="Path 1480" d="M37.912,25H12.664a.628.628,0,0,0-.664.664v7.973a.628.628,0,0,0,.664.664H37.912a.628.628,0,0,0,.664-.664V25.664A.628.628,0,0,0,37.912,25Zm-.664,7.973H13.329V26.329H37.247Z" transform="translate(-6.685 -12.376)" fill="#fff"/>
</svg>
