<svg xmlns="http://www.w3.org/2000/svg" width="32.915" height="34.041" viewBox="0 0 32.915 34.041">
  <g id="smartphone" transform="translate(-0.995)">
    <path id="Path_1497" data-name="Path 1497" d="M27.266,49a2.27,2.27,0,1,0,2.27,2.27A2.272,2.272,0,0,0,27.266,49Zm0,3.4A1.135,1.135,0,1,1,28.4,51.27,1.136,1.136,0,0,1,27.266,52.4Z" transform="translate(-10.383 -21.197)" fill="#fff"/>
    <path id="Path_1498" data-name="Path 1498" d="M25.563,4.135h2.27a.567.567,0,0,0,0-1.135h-2.27a.567.567,0,0,0,0,1.135Z" transform="translate(-10.383 -1.298)" fill="#fff"/>
    <path id="Path_1499" data-name="Path 1499" d="M32.563,4.135h.567a.567.567,0,0,0,0-1.135h-.567a.567.567,0,0,0,0,1.135Z" transform="translate(-13.411 -1.298)" fill="#fff"/>
    <path id="Path_1500" data-name="Path 1500" d="M3.239,12.613,3.1,12.077a.567.567,0,1,0-1.1.294l.144.536a.567.567,0,0,0,.548.42.579.579,0,0,0,.148-.019A.568.568,0,0,0,3.239,12.613Z" transform="translate(-0.426 -5.042)" fill="#fff"/>
    <path id="Path_1501" data-name="Path 1501" d="M1.625,8.579a.567.567,0,0,0,.511-.618c0-.046-.007-.091-.007-.137a1.4,1.4,0,0,1,.024-.255A.567.567,0,1,0,1.04,7.355,2.5,2.5,0,0,0,1,7.825c0,.081,0,.162.012.244a.567.567,0,0,0,.564.513A.438.438,0,0,0,1.625,8.579Z" transform="translate(0 -2.983)" fill="#fff"/>
    <path id="Path_1502" data-name="Path 1502" d="M5.769,22.058l-.144-.536a.567.567,0,0,0-1.1.294l.144.536a.568.568,0,0,0,.548.42.575.575,0,0,0,.147-.019A.567.567,0,0,0,5.769,22.058Z" transform="translate(-1.52 -9.128)" fill="#fff"/>
    <path id="Path_1503" data-name="Path 1503" d="M10.832,40.95l-.144-.536a.567.567,0,1,0-1.1.294l.144.536a.567.567,0,0,0,.548.42.579.579,0,0,0,.148-.019A.568.568,0,0,0,10.832,40.95Z" transform="translate(-3.711 -17.301)" fill="#fff"/>
    <path id="Path_1504" data-name="Path 1504" d="M4.5,17.334,4.36,16.8a.567.567,0,1,0-1.1.294l.144.536a.567.567,0,0,0,.548.42.579.579,0,0,0,.148-.019A.567.567,0,0,0,4.5,17.334Z" transform="translate(-0.973 -7.085)" fill="#fff"/>
    <path id="Path_1505" data-name="Path 1505" d="M4.182,5.247a.575.575,0,0,0,.147-.019l.536-.144a.567.567,0,0,0-.294-1.1l-.536.144a.567.567,0,0,0,.147,1.116Z" transform="translate(-1.133 -1.716)" fill="#fff"/>
    <path id="Path_1506" data-name="Path 1506" d="M8.906,3.981a.575.575,0,0,0,.147-.019l.536-.144a.567.567,0,0,0-.293-1.1l-.536.144a.567.567,0,0,0,.146,1.116Z" transform="translate(-3.177 -1.169)" fill="#fff"/>
    <path id="Path_1507" data-name="Path 1507" d="M9.566,36.227l-.144-.536a.567.567,0,0,0-1.1.294l.144.536a.567.567,0,0,0,1.1-.294Z" transform="translate(-3.163 -15.258)" fill="#fff"/>
    <path id="Path_1508" data-name="Path 1508" d="M7.035,26.782l-.144-.536a.567.567,0,1,0-1.1.294l.144.536a.568.568,0,0,0,.548.42.575.575,0,0,0,.147-.019A.568.568,0,0,0,7.035,26.782Z" transform="translate(-2.068 -11.172)" fill="#fff"/>
    <path id="Path_1509" data-name="Path 1509" d="M8.3,31.5l-.144-.536a.567.567,0,1,0-1.1.294L7.2,31.8a.568.568,0,0,0,.548.42A.575.575,0,0,0,7.9,32.2.567.567,0,0,0,8.3,31.5Z" transform="translate(-2.616 -13.214)" fill="#fff"/>
    <path id="Path_1510" data-name="Path 1510" d="M55.361,16.4a.565.565,0,0,0-.7.4l-.144.536a.568.568,0,0,0,.4.7.576.576,0,0,0,.148.019.567.567,0,0,0,.548-.42l.144-.536A.568.568,0,0,0,55.361,16.4Z" transform="translate(-23.147 -7.085)" fill="#fff"/>
    <path id="Path_1511" data-name="Path 1511" d="M56.625,11.675a.566.566,0,0,0-.7.4l-.144.536a.568.568,0,0,0,.4.7.575.575,0,0,0,.147.019.567.567,0,0,0,.548-.42l.144-.536A.567.567,0,0,0,56.625,11.675Z" transform="translate(-23.694 -5.042)" fill="#fff"/>
    <path id="Path_1512" data-name="Path 1512" d="M58.069,7.356a.567.567,0,1,0-1.114.214,1.311,1.311,0,0,1,.024.255,1.356,1.356,0,0,1-.007.136.568.568,0,0,0,.511.619.438.438,0,0,0,.054,0A.568.568,0,0,0,58.1,8.07q.012-.123.012-.243A2.445,2.445,0,0,0,58.069,7.356Z" transform="translate(-24.203 -2.983)" fill="#fff"/>
    <path id="Path_1513" data-name="Path 1513" d="M49.138,3.818l.536.144a.575.575,0,0,0,.147.019.567.567,0,0,0,.146-1.116l-.536-.144a.567.567,0,1,0-.293,1.1Z" transform="translate(-20.644 -1.169)" fill="#fff"/>
    <path id="Path_1514" data-name="Path 1514" d="M53.861,5.085l.536.144a.575.575,0,0,0,.147.019.567.567,0,0,0,.146-1.116l-.536-.144a.567.567,0,1,0-.293,1.1Z" transform="translate(-22.687 -1.717)" fill="#fff"/>
    <path id="Path_1515" data-name="Path 1515" d="M54.095,21.122a.567.567,0,0,0-.7.4l-.144.536a.568.568,0,0,0,.4.7.576.576,0,0,0,.148.019.567.567,0,0,0,.548-.42l.144-.536A.568.568,0,0,0,54.095,21.122Z" transform="translate(-22.599 -9.129)" fill="#fff"/>
    <path id="Path_1516" data-name="Path 1516" d="M32.163,25.392a.568.568,0,0,0-.7.4l-.108.4v-.1c0-.01-.005-.018-.006-.027V23.908c0-.01.006-.018.006-.027v-.555c0-.01-.005-.018-.006-.027V21.134c0-.01.006-.018.006-.027v-.555c0-.01-.005-.018-.006-.027V18.36c0-.01.006-.018.006-.027v-.555c0-.01-.005-.018-.006-.027V15.586c0-.01.006-.018.006-.027V15c0-.01-.005-.018-.006-.027V12.812c0-.01.006-.018.006-.027v-.557c0-.01-.005-.018-.006-.027V10.036c0-.01.006-.018.006-.027V9.453c0-.01-.005-.018-.006-.027V7.262c0-.01.006-.018.006-.027V6.679c0-.01-.005-.018-.006-.027V4.487c0-.01.006-.018.006-.027V3.9c0-.01-.005-.018-.006-.027V2.5a2.5,2.5,0,0,0-2.5-2.5H14.562a2.5,2.5,0,0,0-2.5,2.5V3.9h0v.555h0V6.677h0v.555h0V9.451h0v.555h0v2.216h0v.555h0V15h0v.555h0v2.216h0v.555h0v2.216h0V21.1h0v2.216h0v.555h0V26.1h0v.1l-.108-.4a.567.567,0,1,0-1.1.294l.144.536a.567.567,0,0,0,1.062.094V28.06a.542.542,0,0,0-.085.009.568.568,0,0,0-.4.7l.144.536a.562.562,0,0,0,.343.377v1.866a2.5,2.5,0,0,0,2.5,2.5H28.855a2.5,2.5,0,0,0,2.5-2.5V29.679A.56.56,0,0,0,31.7,29.3l.144-.536a.568.568,0,0,0-.4-.7.547.547,0,0,0-.091-.009V26.719a.038.038,0,0,0,0-.009.568.568,0,0,0,1.064-.09l.144-.536A.564.564,0,0,0,32.163,25.392ZM13.2,4.539H30.22V26.1H13.2Zm1.365-3.4H28.855A1.366,1.366,0,0,1,30.219,2.5V3.4H13.2V2.5A1.367,1.367,0,0,1,14.562,1.135ZM28.855,32.91H14.562A1.366,1.366,0,0,1,13.2,31.545V27.236H30.22v4.309A1.366,1.366,0,0,1,28.855,32.91Z" transform="translate(-4.258)" fill="#fff"/>
    <path id="Path_1517" data-name="Path 1517" d="M50.3,35.291a.565.565,0,0,0-.7.4l-.144.536a.568.568,0,0,0,.4.7.575.575,0,0,0,.147.019.567.567,0,0,0,.548-.42l.144-.536A.567.567,0,0,0,50.3,35.291Z" transform="translate(-20.957 -15.258)" fill="#fff"/>
    <path id="Path_1518" data-name="Path 1518" d="M49.033,40.013a.565.565,0,0,0-.7.4l-.144.536a.568.568,0,0,0,.4.7.576.576,0,0,0,.148.019.567.567,0,0,0,.548-.42l.144-.536A.568.568,0,0,0,49.033,40.013Z" transform="translate(-20.41 -17.3)" fill="#fff"/>
    <path id="Path_1519" data-name="Path 1519" d="M51.563,30.566a.565.565,0,0,0-.695.4l-.144.536a.567.567,0,0,0,1.1.294l.144-.536A.568.568,0,0,0,51.563,30.566Z" transform="translate(-21.505 -13.214)" fill="#fff"/>
    <path id="Path_1520" data-name="Path 1520" d="M52.829,25.844a.566.566,0,0,0-.7.4l-.144.536a.568.568,0,0,0,.4.7.575.575,0,0,0,.147.019.567.567,0,0,0,.548-.42l.144-.536A.567.567,0,0,0,52.829,25.844Z" transform="translate(-22.052 -11.171)" fill="#fff"/>
  </g>
</svg>
