<svg xmlns="http://www.w3.org/2000/svg" width="24.972" height="36.504" viewBox="0 0 24.972 36.504"><defs><style>.a{fill:#fff;}</style></defs><g transform="translate(-80.873)"><g transform="translate(80.873)"><path class="a" d="M103.178,0H83.54a2.67,2.67,0,0,0-2.667,2.667V8.381a.554.554,0,0,0,1.108,0V6.312h4.237a.554.554,0,1,0,0-1.108H81.981V2.667A1.561,1.561,0,0,1,83.54,1.108h19.638a1.561,1.561,0,0,1,1.559,1.559V5.2H88.582a.554.554,0,1,0,0,1.108h16.155V30.106H81.981V11.195a.554.554,0,0,0-1.108,0V33.837A2.67,2.67,0,0,0,83.54,36.5h19.638a2.67,2.67,0,0,0,2.667-2.667V2.667A2.67,2.67,0,0,0,103.178,0Zm1.559,33.837a1.561,1.561,0,0,1-1.559,1.559H83.54a1.561,1.561,0,0,1-1.559-1.559V31.214h22.756v2.622Z" transform="translate(-80.873)"/></g><g transform="translate(91.882 31.65)"><path class="a" d="M236.758,443.913a1.477,1.477,0,1,0,1.477,1.477A1.479,1.479,0,0,0,236.758,443.913Zm0,1.847a.369.369,0,1,1,.369-.369A.37.37,0,0,1,236.758,445.76Z" transform="translate(-235.281 -443.913)"/></g><g transform="translate(90.297 2.581)"><path class="a" d="M218.626,36.2H213.61a.554.554,0,0,0,0,1.108h5.016a.554.554,0,1,0,0-1.108Z" transform="translate(-213.056 -36.198)"/></g><g transform="translate(91.393 15.184)"><path class="a" d="M230.931,212.971a2.512,2.512,0,1,0,2.512,2.512A2.515,2.515,0,0,0,230.931,212.971Zm0,3.916a1.4,1.4,0,1,1,1.4-1.4A1.406,1.406,0,0,1,230.931,216.887Z" transform="translate(-228.419 -212.971)"/></g><g transform="translate(88.312 12.104)"><path class="a" d="M190.81,169.77a5.592,5.592,0,1,0,5.592,5.592A5.6,5.6,0,0,0,190.81,169.77Zm0,10.077a4.484,4.484,0,1,1,4.484-4.484A4.489,4.489,0,0,1,190.81,179.847Z" transform="translate(-185.218 -169.77)"/></g><g transform="translate(84.975 8.767)"><path class="a" d="M147.338,122.959a8.93,8.93,0,1,0,8.93,8.93A8.94,8.94,0,0,0,147.338,122.959Zm0,16.752a7.822,7.822,0,1,1,7.822-7.822A7.831,7.831,0,0,1,147.338,139.711Z" transform="translate(-138.408 -122.959)"/></g></g></svg>