<svg id="Group_1825" data-name="Group 1825" xmlns="http://www.w3.org/2000/svg" width="34.469" height="34.468" viewBox="0 0 34.469 34.468">
  <path id="Path_1481" data-name="Path 1481" d="M19.5,955.362v4.423A12.848,12.848,0,0,0,7.423,971.863H3v1.467H7.423A12.837,12.837,0,0,0,19.5,985.407v4.423h1.467v-4.423a12.837,12.837,0,0,0,12.078-12.077h4.423v-1.467H33.046a12.848,12.848,0,0,0-12.078-12.078v-4.423Zm0,5.89v4.377h1.467v-4.377a11.36,11.36,0,0,1,10.611,10.611H27.2v1.467h4.377A11.357,11.357,0,0,1,20.968,983.94v-4.377H19.5v4.377A11.357,11.357,0,0,1,8.89,973.329h4.377v-1.467H8.89A11.36,11.36,0,0,1,19.5,961.252Zm.733,7.311a4.033,4.033,0,1,0,4.034,4.033A4.045,4.045,0,0,0,20.235,968.563Zm0,1.467a2.567,2.567,0,1,1-2.567,2.567A2.556,2.556,0,0,1,20.235,970.029Z" transform="translate(-3 -955.362)" fill="#fff"/>
</svg>
