<svg xmlns="http://www.w3.org/2000/svg" width="32.087" height="34.968" viewBox="0 0 32.087 34.968">
  <g id="Group_1827" data-name="Group 1827" transform="translate(0 0)">
    <path id="Path_1487" data-name="Path 1487" d="M26.82,24.37v9.669H58.908V24.37ZM57.9,33H27.835V25.4H57.9Z" transform="translate(-26.82 -24.37)" fill="#fff"/>
    <rect id="Rectangle_255" data-name="Rectangle 255" width="0.995" height="0.995" transform="translate(28.075 5.332)" fill="#fff"/>
    <rect id="Rectangle_256" data-name="Rectangle 256" width="0.995" height="0.995" transform="translate(25.092 5.332)" fill="#fff"/>
    <rect id="Rectangle_257" data-name="Rectangle 257" width="0.995" height="0.995" transform="translate(22.108 5.332)" fill="#fff"/>
    <path id="Path_1488" data-name="Path 1488" d="M41.816,28.32H30.69v4.047H41.816Zm-1.008,3.032h-9.1V29.328h9.1Z" transform="translate(-28.017 -25.592)" fill="#fff"/>
    <path id="Path_1489" data-name="Path 1489" d="M26.82,42.7v9.669H58.908V42.7ZM57.9,51.326H27.835v-7.6H57.9Z" transform="translate(-26.82 -30.04)" fill="#fff"/>
    <rect id="Rectangle_258" data-name="Rectangle 258" width="0.995" height="0.995" transform="translate(28.075 17.991)" fill="#fff"/>
    <rect id="Rectangle_259" data-name="Rectangle 259" width="0.995" height="0.995" transform="translate(25.092 17.991)" fill="#fff"/>
    <rect id="Rectangle_260" data-name="Rectangle 260" width="0.995" height="0.995" transform="translate(22.108 17.991)" fill="#fff"/>
    <path id="Path_1490" data-name="Path 1490" d="M41.816,46.75H30.69V50.8H41.816Zm-1.008,3.032h-9.1V47.758h9.1Z" transform="translate(-28.017 -31.293)" fill="#fff"/>
    <rect id="Rectangle_261" data-name="Rectangle 261" width="0.995" height="5.615" transform="translate(28.096 27.322)" fill="#fff"/>
    <rect id="Rectangle_262" data-name="Rectangle 262" width="0.995" height="5.615" transform="translate(25.112 27.322)" fill="#fff"/>
    <rect id="Rectangle_263" data-name="Rectangle 263" width="0.995" height="5.615" transform="translate(22.129 27.322)" fill="#fff"/>
    <rect id="Rectangle_264" data-name="Rectangle 264" width="0.995" height="5.615" transform="translate(8.971 27.322)" fill="#fff"/>
    <rect id="Rectangle_265" data-name="Rectangle 265" width="0.995" height="5.615" transform="translate(5.988 27.322)" fill="#fff"/>
    <rect id="Rectangle_266" data-name="Rectangle 266" width="0.995" height="5.615" transform="translate(3.004 27.322)" fill="#fff"/>
    <path id="Path_1491" data-name="Path 1491" d="M26.82,61v9.669H58.908V61ZM57.9,69.626H27.835v-7.6H57.9Z" transform="translate(-26.82 -35.701)" fill="#fff"/>
    <path id="Path_1492" data-name="Path 1492" d="M48.921,69.4A2.528,2.528,0,1,0,46.4,66.868,2.528,2.528,0,0,0,48.921,69.4Zm0-4.04a1.513,1.513,0,1,1-1.513,1.513,1.513,1.513,0,0,1,1.513-1.513Z" transform="translate(-32.877 -36.735)" fill="#fff"/>
  </g>
</svg>
