<svg xmlns="http://www.w3.org/2000/svg" width="36.409" height="36.411" viewBox="0 0 36.409 36.411"><defs><style>.a{fill:#fff;}</style></defs><g transform="translate(-0.001 0)"><path class="a" d="M36.255,1.1a1.067,1.067,0,0,0-.943-.943C26.871-.782,19.675,2.595,13.805,8.637a44.01,44.01,0,0,0-4.381,5.326,8.47,8.47,0,0,0-6.093,2.521L.314,19.5a1.067,1.067,0,0,0,1.031,1.785,14.856,14.856,0,0,1,2.93-.458,8.239,8.239,0,0,1,1.007.008c-.666,1.281-1.176,2.353-1.345,2.622a1.067,1.067,0,0,0,.149,1.323l1.746,1.746c-2.541,3.466-2.583,5.24-2.574,5.492a1.072,1.072,0,0,0,1.122,1.031c.6,0,2.3-.253,5.413-2.562l1.837,1.837a1.067,1.067,0,0,0,1.331.143c.287-.185,1.3-.674,2.508-1.306a26.059,26.059,0,0,1-.368,4.024,1.068,1.068,0,0,0,1.81.911l3.017-3.017a8.426,8.426,0,0,0,2.392-6.035,44.05,44.05,0,0,0,5.6-4.607C33.908,16.569,37.181,9.428,36.255,1.1ZM34.214,2.2a21.3,21.3,0,0,1-.541,6.687A9.394,9.394,0,0,1,29.914,6.5a9.384,9.384,0,0,1-2.392-3.774A21.508,21.508,0,0,1,34.214,2.2ZM4.136,18.7l.7-.7a6.736,6.736,0,0,1,3.06-1.74c-.575.913-1.088,1.785-1.54,2.59A8.568,8.568,0,0,0,4.136,18.7Zm2.019,5.137c.231-.456.51-1.027,1.023-2l1.4,1.4q-.784.841-1.419,1.6Zm5.217-.408a3.155,3.155,0,0,1,2.449-.939,3.19,3.19,0,0,1-.94,2.448,27.594,27.594,0,0,1-6.94,5.451A27.329,27.329,0,0,1,11.371,23.426Zm1.2,6.825-1.1-1.1q.753-.64,1.593-1.424l1.495,1.495C13.576,29.746,13.166,29.943,12.571,30.251Zm5.847,1.321-.854.854a10.411,10.411,0,0,0-.053-2.37c.785-.442,1.637-.943,2.529-1.5A6.291,6.291,0,0,1,18.418,31.571ZM16.5,28.146l-1.913-1.913c1.415-1.557,1.363-3.058,1.363-4.811a1.067,1.067,0,0,0-1.067-1.067c-1.638,0-3.214-.088-4.811,1.363L8.247,19.891C13.234,11.146,19,5.608,25.477,3.328A11.489,11.489,0,0,0,28.406,8a11.5,11.5,0,0,0,4.655,2.922C30.768,17.369,25.232,23.131,16.5,28.146Zm0,0" transform="translate(0)"/><path class="a" d="M259.3,113.394a5.334,5.334,0,1,0,0,7.544A5.34,5.34,0,0,0,259.3,113.394Zm-1.509,6.035a3.2,3.2,0,1,1,0-4.526A3.2,3.2,0,0,1,257.788,119.429Zm0,0" transform="translate(-232.399 -103.881)"/></g></svg>