<svg xmlns="http://www.w3.org/2000/svg" width="37.606" height="34.598" viewBox="0 0 37.606 34.598"><defs><style>.a{fill:#fff;}</style></defs><g transform="translate(0 -2.4)"><path class="a" d="M31.371,13.718V5.652a3.27,3.27,0,0,0-4.815-2.864l-1.485.8V3.6L14.282,9.381a3.243,3.243,0,0,0-1.581,1.95l-8.165.5a2.151,2.151,0,0,0-1.971,1.885H2.013A2.014,2.014,0,0,0,0,15.727v3.5a2.014,2.014,0,0,0,2.013,2.013h.555a2.384,2.384,0,0,0,2.189,2.09l.291.018V34.178a2.82,2.82,0,1,0,5.641,0V23.686l2.029.123a3.223,3.223,0,0,0,1.647,1.94L25.07,31.1v.016l1.566.783a3.244,3.244,0,0,0,1.455.346h.033A3.254,3.254,0,0,0,31.371,29V21.232a3.135,3.135,0,0,0,3.1-3.131V16.848A3.135,3.135,0,0,0,31.371,13.718ZM9.434,34.179a1.567,1.567,0,0,1-3.134,0v-.407H7.554a.627.627,0,1,0,0-1.254H6.3V31.264H7.554a.627.627,0,1,0,0-1.254H6.3V28.757H7.554a.627.627,0,1,0,0-1.254H6.3V26.25H7.554a.627.627,0,0,0,0-1.254H6.3V23.422l3.134.194Zm17.8-3.4-.906-.453V4.352l.856-.458a1.984,1.984,0,0,1,.835-.226c.04,0,.079-.013.119-.013h.011a2,2,0,0,1,1.94,2V29a1.969,1.969,0,0,1-2.854,1.784ZM2.507,19.982H2.013a.76.76,0,0,1-.759-.758v-3.5a.76.76,0,0,1,.759-.759h.495Zm1.286.97V13.973a.9.9,0,0,1,.825-.893l7.95-.485v9.949l-7.729-.469A1.13,1.13,0,0,1,3.793,20.952Zm11.131,3.677a1.983,1.983,0,0,1-1.1-1.784v-10.6a1.991,1.991,0,0,1,1.054-1.759l10.2-5.463V29.7ZM33.218,18.1a1.881,1.881,0,0,1-1.848,1.877V14.971a1.881,1.881,0,0,1,1.848,1.877Z" transform="translate(0 0)"/><path class="a" d="M57.138,19.718a.627.627,0,0,0-1.025.723,6.1,6.1,0,0,1,1.139,3.416,5.861,5.861,0,0,1-1.136,3.379.627.627,0,1,0,1.018.731,7.138,7.138,0,0,0,1.371-4.142A7.332,7.332,0,0,0,57.138,19.718Z" transform="translate(-20.901 -6.365)"/><path class="a" d="M28.949,14.8a.626.626,0,0,0-.84-.284L25.319,15.9A2.5,2.5,0,0,0,24,18.1v1.366a.627.627,0,0,0,1.254,0V18.1a1.236,1.236,0,0,1,.64-1.089l2.772-1.371A.627.627,0,0,0,28.949,14.8Z" transform="translate(-8.958 -4.498)"/><path class="a" d="M24.627,24.452a.626.626,0,0,0-.627.627v1.254a.627.627,0,1,0,1.254,0V25.079A.627.627,0,0,0,24.627,24.452Z" transform="translate(-8.958 -8.231)"/></g></svg>