<svg xmlns="http://www.w3.org/2000/svg" width="261.517" height="38.498" viewBox="0 0 261.517 38.498">
  <g id="Group_1905" data-name="Group 1905" transform="translate(-35 -25.82)">
    <g id="Group_1822" data-name="Group 1822" transform="translate(-542.664 -4326.042)">
      <path id="Path_1184" data-name="Path 1184" d="M146.107,153.989a8.411,8.411,0,0,1-3.853.949c-3.7,0-4.954-2.373-4.954-5.459,0-3.639,2.123-5.379,4.718-5.379,2.516,0,4.246,1.345,4.246,4.826a6.88,6.88,0,0,1-.079,1.187h-6.448c.079,1.9.786,3.006,2.752,3.006a7.407,7.407,0,0,0,2.91-.712Zm-2.123-5.538c0-1.978-.865-2.611-1.966-2.611-1.18,0-2.123.791-2.2,2.611Z" transform="translate(549.403 4221.001)" fill="#f7ba16"/>
      <path id="Path_1185" data-name="Path 1185" d="M156.948,154.7v-1.266l1.022-.158c.314-.079.314-.158.314-.4v-4.667c0-1.187-.157-2.215-1.415-2.215a5.038,5.038,0,0,0-2.752,1.028V152.8c0,.316,0,.4.314.4l1.1.158v1.266h-4.954v-1.345l.944-.158c.315-.079.315-.079.315-.4v-6.329c0-.237-.079-.4-.236-.4l-1.1-.4.236-1.266h2.988l.157,1.108h.079a6.264,6.264,0,0,1,3.775-1.345c2.2,0,2.988,1.345,2.988,3.718v5.063c0,.316,0,.4.315.4l1.1.158V154.7Z" transform="translate(546.583 4221.001)" fill="#f7ba16"/>
      <path id="Path_1186" data-name="Path 1186" d="M174.814,145.94A3.256,3.256,0,0,1,175.6,148c0,2.294-1.809,3.639-4.168,3.639a8.293,8.293,0,0,1-1.651-.158l-.944,1.5,2.438.158c3.539.158,5.269.4,5.269,2.769,0,2.136-1.809,3.4-5.347,3.4s-4.8-.949-4.8-2.452a2.947,2.947,0,0,1,1.258-2.215,1.483,1.483,0,0,1-.944-1.266,1.566,1.566,0,0,1,.472-1.107,15.793,15.793,0,0,1,1.1-1.266,3.181,3.181,0,0,1-1.573-2.927c0-2.215,1.573-3.876,4.4-3.876a6.1,6.1,0,0,1,1.887.237h3.617v1.5Zm-5.662,9.1a2.174,2.174,0,0,0-.786,1.424c0,.949,1.1,1.266,2.831,1.266,1.022,0,2.988-.158,2.988-1.424,0-.87-.786-.949-1.887-1.028Zm2.123-9.256A2.113,2.113,0,0,0,168.916,148c0,1.107.629,1.978,2.28,1.978a2.016,2.016,0,0,0,2.28-2.057C173.556,146.494,172.691,145.782,171.275,145.782Z" transform="translate(543.187 4220.98)" fill="#f7ba16"/>
      <path id="Path_1187" data-name="Path 1187" d="M186.884,154.68l-.236-1.187h-.079a4.71,4.71,0,0,1-3.539,1.424,2.532,2.532,0,0,1-2.831-2.848c0-1.978,1.258-3.006,3.7-3.164l2.516-.237v-1.028c0-1.266-.236-1.978-1.73-1.978-1.1,0-1.809.079-1.809,1.5l-2.2-.237c0-2.611,2.359-2.927,4.089-2.927,2.91,0,4.011.791,4.011,3.639v5.142c0,.316,0,.4.314.4l.944.158V154.6h-3.146Zm-.393-4.509-1.887.158c-1.494.158-1.966.554-1.966,1.5s.472,1.266,1.258,1.266a4.4,4.4,0,0,0,2.6-1.187v-1.74Z" transform="translate(540.239 4221.022)" fill="#f7ba16"/>
      <path id="Path_1188" data-name="Path 1188" d="M202.214,145.94A3.256,3.256,0,0,1,203,148c0,2.294-1.809,3.639-4.168,3.639a8.293,8.293,0,0,1-1.651-.158l-.944,1.5,2.438.158c3.539.158,5.269.4,5.269,2.769,0,2.136-1.809,3.4-5.347,3.4s-4.8-.949-4.8-2.452a2.946,2.946,0,0,1,1.258-2.215,1.483,1.483,0,0,1-.944-1.266,1.566,1.566,0,0,1,.472-1.107,15.8,15.8,0,0,1,1.1-1.266,3.181,3.181,0,0,1-1.573-2.927c0-2.215,1.573-3.876,4.4-3.876a6.1,6.1,0,0,1,1.887.237h3.617v1.5Zm-5.662,9.1a2.174,2.174,0,0,0-.786,1.424c0,.949,1.1,1.266,2.831,1.266,1.022,0,2.988-.158,2.988-1.424,0-.87-.786-.949-1.887-1.028Zm2.123-9.256A2.113,2.113,0,0,0,196.316,148c0,1.107.629,1.978,2.281,1.978a2.016,2.016,0,0,0,2.28-2.057C200.956,146.494,200.091,145.782,198.676,145.782Z" transform="translate(537.333 4220.98)" fill="#f7ba16"/>
      <path id="Path_1189" data-name="Path 1189" d="M207.8,153.447v-1.266l1.18-.158c.315-.079.315-.079.315-.4v-6.487c0-.237-.079-.4-.236-.4l-1.1-.4.236-1.266h3.46v8.544c0,.317,0,.4.315.4l1.18.158v1.266Zm2.359-12.341a1.5,1.5,0,1,1,1.494-1.5A1.37,1.37,0,0,1,210.159,141.106Z" transform="translate(534.343 4222.255)" fill="#f7ba16"/>
      <path id="Path_1190" data-name="Path 1190" d="M222.248,154.7v-1.266l1.022-.158c.315-.079.315-.158.315-.4v-4.667c0-1.187-.157-2.215-1.415-2.215a5.038,5.038,0,0,0-2.752,1.028V152.8c0,.316,0,.4.314.4l1.1.158v1.266h-4.954v-1.345l.944-.158c.314-.079.314-.079.314-.4v-6.329c0-.237-.079-.4-.236-.4l-1.1-.4.236-1.266h2.988l.157,1.108h.079a6.264,6.264,0,0,1,3.775-1.345c2.2,0,2.988,1.345,2.988,3.718v5.063c0,.316,0,.4.315.4l1.1.158V154.7Z" transform="translate(532.634 4221.001)" fill="#f7ba16"/>
      <path id="Path_1191" data-name="Path 1191" d="M240.114,145.94A3.256,3.256,0,0,1,240.9,148c0,2.294-1.809,3.639-4.168,3.639a8.292,8.292,0,0,1-1.651-.158l-.944,1.5,2.438.158c3.539.158,5.269.4,5.269,2.769,0,2.136-1.809,3.4-5.347,3.4s-4.8-.949-4.8-2.452a2.946,2.946,0,0,1,1.258-2.215,1.483,1.483,0,0,1-.944-1.266,1.566,1.566,0,0,1,.472-1.107,15.8,15.8,0,0,1,1.1-1.266,3.181,3.181,0,0,1-1.573-2.927c0-2.215,1.573-3.876,4.4-3.876a6.1,6.1,0,0,1,1.887.237h3.617v1.5Zm-5.583,9.1a2.175,2.175,0,0,0-.786,1.424c0,.949,1.1,1.266,2.831,1.266,1.022,0,2.988-.158,2.988-1.424,0-.87-.786-.949-1.887-1.028Zm2.045-9.256A2.113,2.113,0,0,0,234.216,148c0,1.107.629,1.978,2.28,1.978a2.016,2.016,0,0,0,2.28-2.057C238.856,146.494,237.991,145.782,236.576,145.782Z" transform="translate(529.237 4220.98)" fill="#f7ba16"/>
      <path id="Path_1192" data-name="Path 1192" d="M263.353,154.7v-1.266l1.022-.158c.315-.079.315-.158.315-.4v-4.747c0-1.107-.157-2.136-1.258-2.136a4.955,4.955,0,0,0-2.438.791,4.9,4.9,0,0,1,.079,1.107v4.9c0,.316,0,.4.315.4l.944.158v1.266h-4.954v-1.266l1.1-.158c.315-.079.315-.158.315-.4v-4.667c0-1.187-.079-2.215-1.258-2.215a4.2,4.2,0,0,0-2.516,1.028v5.775c0,.316,0,.4.314.4l1.022.158v1.266h-4.875v-1.266l.944-.158c.315-.079.315-.079.315-.4v-6.329c0-.237-.079-.4-.236-.4l-1.1-.4.236-1.266h2.988l.157,1.108h.079a5.385,5.385,0,0,1,3.46-1.345,2.535,2.535,0,0,1,2.359,1.187,6.06,6.06,0,0,1,3.46-1.187c2.2,0,2.91,1.345,2.91,3.4v5.3c0,.316,0,.4.315.4l1.1.158v1.266h-5.111Z" transform="translate(525.028 4221.001)" fill="#f7ba16"/>
      <path id="Path_1193" data-name="Path 1193" d="M274.5,149.638c0-3.323,1.651-5.538,5.19-5.538s4.875,2.215,4.875,5.221c0,3.4-1.573,5.617-5.112,5.617C275.837,154.938,274.5,152.723,274.5,149.638Zm7.706-.158c0-2.532-.865-3.639-2.595-3.639s-2.752,1.028-2.752,3.639.944,3.718,2.674,3.718S282.206,152.09,282.206,149.479Z" transform="translate(520.093 4221.001)" fill="#f7ba16"/>
      <path id="Path_1194" data-name="Path 1194" d="M289.58,153.489a16.331,16.331,0,0,0,.236-2.927V140.357c0-.237-.079-.4-.236-.4l-1.18-.4.236-1.266h3.46V144a6.334,6.334,0,0,1,3.3-1.108c2.2,0,3.853,1.424,3.853,5.063,0,4.114-1.73,5.775-4.246,5.775a4.078,4.078,0,0,1-2.988-1.187h-.079l-.157.949Zm2.516-2.769a3.577,3.577,0,0,0,2.517,1.108c1.573,0,2.28-1.424,2.28-3.8,0-2.136-.786-3.323-2.123-3.323a4.838,4.838,0,0,0-2.6.949v5.063Z" transform="translate(517.124 4222.212)" fill="#f7ba16"/>
      <path id="Path_1195" data-name="Path 1195" d="M303.8,153.447v-1.266l1.18-.158c.315-.079.315-.079.315-.4v-6.487c0-.237-.078-.4-.236-.4l-1.1-.4.236-1.266h3.46v8.544c0,.317,0,.4.314.4l1.18.158v1.266Zm2.438-12.341a1.5,1.5,0,1,1,1.494-1.5A1.407,1.407,0,0,1,306.238,141.106Z" transform="translate(513.834 4222.255)" fill="#f7ba16"/>
      <path id="Path_1196" data-name="Path 1196" d="M311.9,153.51v-1.266l1.18-.158c.315-.079.315-.079.315-.4V140.457c0-.237-.079-.4-.236-.4l-1.179-.4.236-1.266h3.538v13.369c0,.316,0,.4.315.4l1.1.158v1.266H311.9Z" transform="translate(512.104 4222.191)" fill="#f7ba16"/>
      <path id="Path_1197" data-name="Path 1197" d="M328.607,153.989a8.411,8.411,0,0,1-3.853.949c-3.7,0-4.954-2.373-4.954-5.459,0-3.639,2.123-5.379,4.718-5.379,2.516,0,4.246,1.345,4.246,4.826a6.869,6.869,0,0,1-.079,1.187h-6.448c.079,1.9.786,3.006,2.752,3.006a7.406,7.406,0,0,0,2.909-.712Zm-2.123-5.538c0-1.978-.865-2.611-1.966-2.611-1.18,0-2.123.791-2.2,2.611Z" transform="translate(510.416 4221.001)" fill="#f7ba16"/>
    </g>
    <g id="Group_1265" data-name="Group 1265" transform="translate(35 25.821)">
      <path id="Path_1155" data-name="Path 1155" d="M187.758,38.69a.468.468,0,0,1-.321-.146l-8.37-7.379a6.778,6.778,0,0,1-1.867-5.191V1.183A.554.554,0,0,1,177.7.6h2.246a.534.534,0,0,1,.5.583V26.032c0,1.312,0,1.4.729,2.217l7.116,5.746,5.8-5.746c.671-.787.671-.9.671-2.217V1.212a.554.554,0,0,1,.5-.583H197.5a.554.554,0,0,1,.5.583V26a6.9,6.9,0,0,1-1.837,5.191l-7.145,7.379a.468.468,0,0,1-.321.146h-.933Z" transform="translate(-125.52 -0.425)" fill="#fff"/>
      <path id="Path_1156" data-name="Path 1156" d="M268.92,38.76h-.2a9.953,9.953,0,0,1-5.629-1.808,6.891,6.891,0,0,1-2.887-5.833V1.283A.554.554,0,0,1,260.7.7H280.44a.534.534,0,0,1,.5.583v2.6a.554.554,0,0,1-.5.583H263.408V17.587H280.44a.534.534,0,0,1,.5.583v2.654a.554.554,0,0,1-.5.583H263.408v.758c-.029,2.362-.058,9.041.146,9.8.583,1.983,3.208,2.887,5.4,2.887H280.44a.534.534,0,0,1,.5.583V38.09a.554.554,0,0,1-.5.583H268.92Z" transform="translate(-184.314 -0.496)" fill="#fff"/>
      <path id="Path_1157" data-name="Path 1157" d="M104.812,0C97.958,0,94.4,3.937,94.4,7.583V30.8c0,3.7,3.558,7.7,10.412,7.7s10.412-4,10.412-7.7V7.583C115.223,3.937,111.665,0,104.812,0ZM103.12,1.6H106.5a.393.393,0,0,1,.408.379.376.376,0,0,1-.408.379H103.12a.393.393,0,0,1-.408-.379A.393.393,0,0,1,103.12,1.6Zm8.808,28.932a3.537,3.537,0,0,1-.087,1.079.1.1,0,0,1-.029.058c-.525,1.75-3.675,3.441-7,3.441s-6.475-1.662-7-3.441a.1.1,0,0,0-.029-.058,3.793,3.793,0,0,1-.087-1.079V7.583c0-2.625,3.762-4.462,7.116-4.462,3.325,0,7.145,1.808,7.145,4.462Z" transform="translate(-66.869)" fill="#fff"/>
      <path id="Path_1158" data-name="Path 1158" d="M127.1,102.9a2.1,2.1,0,1,1-2.1-2.1A2.091,2.091,0,0,1,127.1,102.9Z" transform="translate(-87.057 -71.402)" fill="#ffc33b"/>
      <g id="Group_1264" data-name="Group 1264" transform="translate(0 0.204)">
        <path id="Path_1159" data-name="Path 1159" d="M23.682.7H20.911a.529.529,0,0,0-.467.35L12.1,23.857,3.733,1.05A.529.529,0,0,0,3.266.7H.5a.554.554,0,0,0-.5.583V38.148a.584.584,0,0,0,.5.612H2.771a.565.565,0,0,0,.525-.612V9.187l7.2,20.386a.529.529,0,0,0,.467.35h2.275a.529.529,0,0,0,.467-.35l7.2-20.357V38.177a.584.584,0,0,0,.525.612h2.275c.292,0,.5-.262.5-.612V1.283A.556.556,0,0,0,23.682.7Z" transform="translate(0 -0.7)" fill="#fff"/>
      </g>
    </g>
  </g>
</svg>
